<svg width="816" height="450" viewBox="0 0 816 450" fill="none" xmlns="http://www.w3.org/2000/svg">
<path d="M751.5 94.91C751.513 95.115 751.479 95.3204 751.4 95.51L749.83 96.51C749.479 96.4748 749.152 96.3154 748.908 96.0606C748.664 95.8057 748.52 95.4722 748.5 95.12C748.5 95.12 748.5 94.79 748.44 94.28L751.32 92.5C751.43 93.8 751.48 94.65 751.5 94.91Z" fill="#D3E3EF"/>
<path d="M769.76 204.31C769.36 204.94 768.95 205.56 768.55 206.18C736.33 255.83 710.47 275.82 681.68 290.44C681.504 290.53 681.312 290.583 681.115 290.598C680.919 290.614 680.721 290.59 680.533 290.529C680.346 290.467 680.172 290.37 680.022 290.241C679.872 290.113 679.749 289.956 679.66 289.78C679.571 289.604 679.517 289.412 679.502 289.216C679.487 289.019 679.51 288.821 679.572 288.634C679.633 288.446 679.731 288.272 679.859 288.122C679.987 287.973 680.144 287.85 680.32 287.76C708.07 273.67 733.06 254.49 763.97 207.7C764.74 206.54 765.51 205.37 766.28 204.17L769.9 202.97C769.986 203.188 770.018 203.424 769.994 203.657C769.969 203.891 769.889 204.115 769.76 204.31Z" fill="#D3E3EF"/>
<path d="M96.85 54.15C96.8491 54.3751 96.7978 54.5972 96.7 54.8C88.81 71.41 86.18 90.31 85.62 99.23C85.55 100.39 85.51 101.38 85.5 102.17L82.5 101.37C82.5 100.54 82.58 99.55 82.66 98.42C83.33 89 86.09 70.15 94 53.5C94.1765 53.1459 94.4849 52.8752 94.859 52.7461C95.233 52.6171 95.6427 52.64 96 52.81C96.2535 52.9305 96.4678 53.1203 96.6182 53.3574C96.7686 53.5945 96.849 53.8692 96.85 54.15Z" fill="#D3E3EF"/>
<path d="M510 366.22C566.93 333.52 608.08 318.9 641.57 306" stroke="#D3E3EF" stroke-width="3" stroke-linecap="round" stroke-linejoin="round"/>
<path d="M78.5 216.5C78.5 216.5 154.7 380 276 426.89" stroke="#D3E3EF" stroke-width="3" stroke-linecap="round" stroke-linejoin="round"/>
<path d="M339 202C339 202 365.15 349.63 445.31 277.89C467.54 258 477.2 236.3 492.5 224.5C527.5 197.5 555.5 189.5 555.5 189.5" stroke="#D3E3EF" stroke-width="3" stroke-linecap="round" stroke-linejoin="round"/>
<path d="M465.66 110.79L439.6 164.28C438.667 166.198 438.388 168.37 438.807 170.461C439.226 172.553 440.32 174.449 441.92 175.86L451.1 183.94C452.978 185.586 455.414 186.451 457.91 186.36L589.21 181.31C591.57 181.223 593.818 180.277 595.53 178.65L609.82 165.11C611.214 163.787 612.186 162.082 612.613 160.208C613.04 158.334 612.903 156.376 612.22 154.58L596.1 112.27C595.266 110.071 593.664 108.249 591.59 107.14L585.18 103.72C583.692 102.927 582.025 102.531 580.34 102.57L474.17 105.32C472.386 105.364 470.649 105.897 469.148 106.862C467.647 107.827 466.441 109.186 465.66 110.79Z" fill="#FCE8C0"/>
<path d="M604.83 105.79C606.158 107.079 607.182 108.646 607.83 110.38L625.73 157.38C626.616 159.685 626.797 162.201 626.248 164.609C625.7 167.016 624.447 169.206 622.65 170.9L606.83 186C604.628 188.087 601.742 189.302 598.71 189.42L452.78 195C449.58 195.127 446.453 194.017 444.05 191.9L433.84 182.9C431.787 181.09 430.382 178.658 429.84 175.974C429.299 173.291 429.65 170.505 430.84 168.04L459.84 108.59C460.84 106.534 462.388 104.793 464.312 103.558C466.237 102.323 468.464 101.642 470.75 101.59L588.75 98.5298C590.926 98.4691 593.08 98.9757 595 99.9998L602.12 103.8C603.11 104.337 604.021 105.006 604.83 105.79ZM435.78 180.14L436.06 180.39L446.26 189.39C448.018 190.948 450.313 191.761 452.66 191.66L598.58 186C600.798 185.914 602.909 185.026 604.52 183.5L620.4 168.5C621.713 167.258 622.629 165.655 623.031 163.893C623.434 162.13 623.304 160.289 622.66 158.6L604.75 111.6C603.962 109.536 602.457 107.825 600.51 106.78L593.39 102.98C591.991 102.236 590.424 101.865 588.84 101.9L470.84 104.96C469.162 104.993 467.526 105.491 466.113 106.399C464.701 107.306 463.568 108.587 462.84 110.1L433.84 169.55C433.006 171.294 432.744 173.257 433.092 175.159C433.441 177.061 434.381 178.805 435.78 180.14Z" fill="#F7DEB0"/>
<path d="M330.27 206.88C330.27 206.88 334.5 239.5 439.27 272.88C519.5 298.43 545.18 237 552.44 210" stroke="black" stroke-width="1.5" stroke-miterlimit="10"/>
<path d="M551.71 212.55L545.71 214.55L545.63 214.34L550.99 206.52L554.99 197.98L554.93 207.41L556.4 216.78L556.27 216.94L551.71 212.55Z" fill="black"/>
<path d="M78 99C105.26 97.46 126.5 105.5 234.5 69.5C258.72 61.43 280.91 73.5 292.92 82.32" stroke="black" stroke-width="1.5" stroke-miterlimit="10"/>
<path d="M290.72 80.74L291.62 74.48H291.84L296.42 82.78C298.373 85.2466 300.317 87.72 302.25 90.2L293.85 85.91L284.85 83.02L284.76 82.83L290.72 80.74Z" fill="black"/>
<path d="M527.31 101C527.31 101 555.5 63.4599 636.31 34.9999C716.18 6.86986 731.41 63.7999 734.31 88.3999" stroke="black" stroke-width="1.5" stroke-miterlimit="10"/>
<path d="M735 98.9999L727.83 84.5599L734.17 87.6499L739.99 83.6699L735 98.9999Z" fill="black"/>
<path d="M510 411.09C683.68 369.37 739.84 214.39 762 207" stroke="black" stroke-width="1.5" stroke-miterlimit="10" stroke-linecap="round"/>
<path d="M98.16 231.37C140.1 306.48 82.77 372.52 276 406.61" stroke="black" stroke-width="1.5" stroke-linecap="round" stroke-linejoin="round"/>
<path d="M99.43 233.75H105.76V233.53L98.22 227.79L91.73 221C92.73 223.98 93.73 226.957 94.73 229.93L96.28 239.29L96.45 239.4L99.43 233.75Z" fill="black"/>
<path d="M181.5 157.09L138.21 115.09C136.619 113.545 134.661 112.43 132.52 111.85L85.62 99.2299L84 98.7899L82.67 98.4299L57.73 91.7399C55.1997 91.054 52.5211 91.1492 50.0459 92.013C47.5706 92.8767 45.4143 94.4687 43.86 96.5799L22.29 125.82C21.162 127.361 20.3808 129.128 20 131L6.26005 198.64C5.8764 200.501 5.90537 202.423 6.34494 204.272C6.7845 206.121 7.62396 207.85 8.80421 209.339C9.98446 210.829 11.4768 212.041 13.1762 212.891C14.8755 213.741 16.7406 214.208 18.64 214.26L143 218C145.079 218.058 147.141 217.619 149.016 216.72C150.891 215.821 152.524 214.487 153.78 212.83L182.85 174.34C184.781 171.8 185.711 168.639 185.462 165.458C185.213 162.277 183.803 159.298 181.5 157.09ZM180.5 172.55L151.45 211C150.468 212.286 149.194 213.319 147.733 214.015C146.273 214.71 144.667 215.048 143.05 215L18.73 211.38C17.2519 211.335 15.8013 210.968 14.4799 210.304C13.1584 209.641 11.998 208.696 11.0797 207.537C10.1615 206.378 9.50767 205.032 9.16398 203.593C8.8203 202.155 8.79506 200.659 9.09004 199.21L22.83 131.54C23.1293 130.094 23.7364 128.73 24.61 127.54L46.18 98.2899C47.3894 96.6395 49.0716 95.3953 51.0037 94.7221C52.9359 94.0489 55.0269 93.9784 57 94.5199L82.53 101.38L85.53 102.18L131.8 114.61C132.78 114.87 133.714 115.278 134.57 115.82C135.172 116.196 135.731 116.635 136.24 117.13L179.52 159.13C181.297 160.859 182.38 163.178 182.564 165.65C182.748 168.123 182.021 170.577 180.52 172.55H180.5Z" fill="#D3E3EF"/>
<path d="M16.64 192.68L29.12 131.24C29.4329 129.735 30.0749 128.318 31 127.09L50.59 100.54C51.8453 98.838 53.5848 97.5544 55.5812 96.8568C57.5776 96.1592 59.7379 96.0801 61.78 96.6298L129.68 114.86C131.412 115.326 132.996 116.228 134.28 117.48L173.58 155.63C175.421 157.416 176.547 159.814 176.744 162.372C176.941 164.93 176.196 167.472 174.65 169.52L148.26 204.46C147.248 205.802 145.929 206.883 144.414 207.61C142.898 208.337 141.23 208.69 139.55 208.64L26.64 205.29C25.1082 205.243 23.6051 204.862 22.2356 204.175C20.8661 203.487 19.6632 202.508 18.711 201.308C17.7587 200.107 17.0801 198.713 16.7224 197.223C16.3647 195.732 16.3366 194.182 16.64 192.68Z" fill="#E5EDF4"/>
<path d="M302.42 99.3401L297.09 101C295.53 100.56 293.9 100.07 292.18 99.5401C270.24 92.6901 235.72 78.2701 194.4 48.2301C155.22 19.7601 125.53 16.9301 106.14 39.8201C105.884 40.1224 105.518 40.3107 105.124 40.3436C104.729 40.3764 104.337 40.251 104.035 39.9951C103.733 39.7392 103.544 39.3736 103.511 38.9788C103.479 38.5841 103.604 38.1924 103.86 37.8901C113 27.0801 124.52 21.6001 138.09 21.6001H138.46C154.82 21.7201 174.23 29.8701 196.16 45.8101C240.02 77.6901 276.06 91.8101 297.31 97.9501C299.12 98.4601 300.83 98.9201 302.42 99.3401Z" fill="#D3E3EF"/>
<path d="M751.32 92.4698L748.44 94.2498C747.89 86.9298 743 33.9998 718.19 22.6898C707.5 17.8098 694.28 21.3398 678.92 33.1898C641.23 62.2398 620.05 68.3798 599.57 74.3098C583.57 78.9298 568.37 83.3098 545.91 97.9998C544.51 98.9198 543.073 99.8798 541.6 100.88L535.24 101.68C536.62 100.686 537.98 99.7365 539.32 98.8298C565.06 81.1798 582.15 76.2398 598.74 71.4298C618.95 65.5698 639.85 59.5198 677.08 30.8098C693.4 18.2298 707.65 14.5798 719.44 19.9998C744.75 31.5298 750.34 80.7198 751.32 92.4698Z" fill="#D3E3EF"/>
<path d="M274 217.2L252.05 159.13C251.511 157.712 251.289 156.193 251.4 154.68L253.81 122.1C253.967 120.01 254.749 118.016 256.054 116.377C257.36 114.738 259.128 113.53 261.13 112.91L327.66 92.3798C329.354 91.856 331.155 91.7734 332.89 92.1398L386 103.39C388.484 103.919 390.69 105.337 392.204 107.377C393.717 109.417 394.434 111.939 394.22 114.47L390.53 157.68C390.386 159.337 389.848 160.936 388.961 162.343C388.074 163.75 386.863 164.925 385.43 165.77L289 222.5C287.693 223.266 286.235 223.737 284.727 223.881C283.219 224.025 281.697 223.838 280.269 223.333C278.841 222.829 277.54 222.018 276.457 220.959C275.374 219.9 274.536 218.617 274 217.2Z" fill="#E5EDF4"/>
<path d="M393.39 100.41L334.94 88.0002C332.789 87.551 330.56 87.6542 328.46 88.3002L297.31 97.9102L292.18 99.5002L255.18 110.91C252.695 111.666 250.498 113.159 248.88 115.191C247.262 117.223 246.299 119.699 246.12 122.29L243.46 158.17C243.319 160.047 243.592 161.931 244.26 163.69L268.44 227.69C269.101 229.451 270.14 231.045 271.483 232.361C272.827 233.678 274.442 234.684 276.216 235.309C277.989 235.934 279.878 236.163 281.75 235.98C283.622 235.797 285.431 235.207 287.05 234.25L393.2 171.74C394.974 170.698 396.472 169.247 397.57 167.507C398.668 165.767 399.333 163.79 399.51 161.74L403.57 114.15C403.837 111.013 402.95 107.887 401.076 105.357C399.201 102.827 396.469 101.068 393.39 100.41ZM400.73 113.89L396.67 161.48C396.531 163.078 396.012 164.62 395.156 165.977C394.301 167.334 393.133 168.467 391.75 169.28L285.61 231.77C284.351 232.52 282.942 232.985 281.484 233.13C280.026 233.276 278.553 233.099 277.171 232.612C275.789 232.126 274.53 231.341 273.484 230.315C272.439 229.288 271.631 228.044 271.12 226.67L246.93 162.67C246.42 161.297 246.209 159.831 246.31 158.37L249 122.52C249.143 120.503 249.894 118.576 251.154 116.994C252.415 115.412 254.125 114.25 256.06 113.66L297.09 101L302.42 99.3602L329.3 91.0002C330.272 90.7019 331.283 90.5535 332.3 90.5602C332.999 90.5597 333.695 90.6301 334.38 90.7702L392.83 103.17C395.227 103.687 397.353 105.062 398.808 107.036C400.262 109.01 400.946 111.447 400.73 113.89Z" fill="#D3E3EF"/>
<path d="M777.62 99.2902L798.95 152.29C799.469 153.589 799.701 154.984 799.63 156.38L798.03 186.38C797.928 188.306 797.247 190.156 796.077 191.689C794.907 193.221 793.301 194.365 791.47 194.97L730.63 215.16C729.079 215.672 727.423 215.779 725.82 215.47L676.75 206.14C674.459 205.704 672.405 204.449 670.973 202.608C669.541 200.767 668.829 198.468 668.97 196.14L671.54 156.3C671.636 154.771 672.098 153.288 672.886 151.974C673.674 150.66 674.766 149.555 676.07 148.75L763.68 94.7002C764.87 93.9673 766.206 93.5031 767.594 93.34C768.982 93.1769 770.389 93.3189 771.716 93.756C773.044 94.1931 774.26 94.9148 775.28 95.8707C776.299 96.8266 777.098 97.9936 777.62 99.2902Z" fill="#E5EDF4"/>
<path d="M806 148L782.53 89.5402C781.886 87.9335 780.898 86.4875 779.635 85.304C778.372 84.1205 776.865 83.2283 775.22 82.6902C773.57 82.137 771.818 81.955 770.089 82.1572C768.361 82.3595 766.698 82.941 765.22 83.8602L751.27 92.4702C751.38 93.8002 751.43 94.6502 751.45 94.9102C751.463 95.1152 751.429 95.3206 751.35 95.5102L766.6 86.1002C767.746 85.3907 769.034 84.9406 770.373 84.7815C771.712 84.6225 773.069 84.7583 774.35 85.1795C775.63 85.6007 776.803 86.297 777.786 87.2196C778.769 88.1422 779.539 89.2688 780.04 90.5202L803.53 148.94C804.033 150.19 804.258 151.535 804.19 152.88L802.48 186C802.391 187.861 801.739 189.651 800.61 191.133C799.482 192.615 797.93 193.719 796.16 194.3L769.9 203L766.28 204.2L729.14 216.52C728.262 216.81 727.345 216.969 726.42 216.99C725.776 217.004 725.132 216.947 724.5 216.82L670.5 206.54C668.284 206.118 666.298 204.902 664.915 203.12C663.532 201.337 662.848 199.112 662.99 196.86L665.77 153C665.868 151.526 666.316 150.096 667.078 148.83C667.84 147.563 668.893 146.497 670.15 145.72L749.83 96.5302C749.479 96.495 749.152 96.3356 748.908 96.0808C748.664 95.8259 748.52 95.4924 748.5 95.1402C748.5 95.1402 748.5 94.8102 748.44 94.3002L668.77 143.48C667.156 144.478 665.804 145.848 664.827 147.474C663.849 149.1 663.274 150.937 663.15 152.83L660.33 196.71C660.163 199.597 661.052 202.447 662.831 204.727C664.61 207.007 667.159 208.561 670 209.1L724 219.38C726.002 219.758 728.066 219.621 730 218.98L764 207.7L768.58 206.18L797 196.75C799.273 196.006 801.266 194.589 802.715 192.687C804.165 190.786 805.004 188.489 805.12 186.1L806.86 153C806.933 151.291 806.64 149.587 806 148Z" fill="#D3E3EF"/>
<path d="M46.064 153L43.344 149.175C43.038 149.209 42.7207 149.226 42.392 149.226H39.196V153H37.938V141.1H42.392C43.9107 141.1 45.1007 141.463 45.962 142.188C46.8233 142.913 47.254 143.911 47.254 145.18C47.254 146.109 47.016 146.897 46.54 147.543C46.0753 148.178 45.4067 148.637 44.534 148.92L47.441 153H46.064ZM42.358 148.155C43.5367 148.155 44.4377 147.894 45.061 147.373C45.6843 146.852 45.996 146.121 45.996 145.18C45.996 144.217 45.6843 143.48 45.061 142.97C44.4377 142.449 43.5367 142.188 42.358 142.188H39.196V148.155H42.358ZM57.7542 148.903H50.2742C50.3422 149.832 50.6992 150.586 51.3452 151.164C51.9912 151.731 52.8072 152.014 53.7932 152.014C54.3485 152.014 54.8585 151.918 55.3232 151.725C55.7878 151.521 56.1902 151.226 56.5302 150.841L57.2102 151.623C56.8135 152.099 56.3148 152.462 55.7142 152.711C55.1248 152.96 54.4732 153.085 53.7592 153.085C52.8412 153.085 52.0252 152.892 51.3112 152.507C50.6085 152.11 50.0588 151.566 49.6622 150.875C49.2655 150.184 49.0672 149.402 49.0672 148.529C49.0672 147.656 49.2542 146.874 49.6282 146.183C50.0135 145.492 50.5348 144.953 51.1922 144.568C51.8608 144.183 52.6088 143.99 53.4362 143.99C54.2635 143.99 55.0058 144.183 55.6632 144.568C56.3205 144.953 56.8362 145.492 57.2102 146.183C57.5842 146.863 57.7712 147.645 57.7712 148.529L57.7542 148.903ZM53.4362 145.027C52.5748 145.027 51.8495 145.305 51.2602 145.86C50.6822 146.404 50.3535 147.118 50.2742 148.002H56.6152C56.5358 147.118 56.2015 146.404 55.6122 145.86C55.0342 145.305 54.3088 145.027 53.4362 145.027ZM63.1069 143.99C64.2742 143.99 65.1696 144.285 65.7929 144.874C66.4162 145.452 66.7279 146.313 66.7279 147.458V153H65.5719V151.606C65.2999 152.071 64.8976 152.433 64.3649 152.694C63.8436 152.955 63.2202 153.085 62.4949 153.085C61.4976 153.085 60.7042 152.847 60.1149 152.371C59.5256 151.895 59.2309 151.266 59.2309 150.484C59.2309 149.725 59.5029 149.113 60.0469 148.648C60.6022 148.183 61.4806 147.951 62.6819 147.951H65.5209V147.407C65.5209 146.636 65.3056 146.053 64.8749 145.656C64.4442 145.248 63.8152 145.044 62.9879 145.044C62.4212 145.044 61.8772 145.14 61.3559 145.333C60.8346 145.514 60.3869 145.769 60.0129 146.098L59.4689 145.197C59.9222 144.812 60.4662 144.517 61.1009 144.313C61.7356 144.098 62.4042 143.99 63.1069 143.99ZM62.6819 152.133C63.3619 152.133 63.9456 151.98 64.4329 151.674C64.9202 151.357 65.2829 150.903 65.5209 150.314V148.852H62.7159C61.1859 148.852 60.4209 149.385 60.4209 150.45C60.4209 150.971 60.6192 151.385 61.0159 151.691C61.4126 151.986 61.9679 152.133 62.6819 152.133ZM78.1994 140.386V153H77.0434V151.232C76.6808 151.833 76.1991 152.292 75.5984 152.609C75.0091 152.926 74.3404 153.085 73.5924 153.085C72.7538 153.085 71.9944 152.892 71.3144 152.507C70.6344 152.122 70.1018 151.583 69.7164 150.892C69.3311 150.201 69.1384 149.413 69.1384 148.529C69.1384 147.645 69.3311 146.857 69.7164 146.166C70.1018 145.475 70.6344 144.942 71.3144 144.568C71.9944 144.183 72.7538 143.99 73.5924 143.99C74.3178 143.99 74.9694 144.143 75.5474 144.449C76.1368 144.744 76.6184 145.18 76.9924 145.758V140.386H78.1994ZM73.6944 152.014C74.3178 152.014 74.8788 151.872 75.3774 151.589C75.8874 151.294 76.2841 150.881 76.5674 150.348C76.8621 149.815 77.0094 149.209 77.0094 148.529C77.0094 147.849 76.8621 147.243 76.5674 146.71C76.2841 146.177 75.8874 145.769 75.3774 145.486C74.8788 145.191 74.3178 145.044 73.6944 145.044C73.0598 145.044 72.4874 145.191 71.9774 145.486C71.4788 145.769 71.0821 146.177 70.7874 146.71C70.5041 147.243 70.3624 147.849 70.3624 148.529C70.3624 149.209 70.5041 149.815 70.7874 150.348C71.0821 150.881 71.4788 151.294 71.9774 151.589C72.4874 151.872 73.0598 152.014 73.6944 152.014ZM89.0749 144.058L84.6039 154.071C84.2413 154.91 83.8219 155.505 83.3459 155.856C82.8699 156.207 82.2976 156.383 81.6289 156.383C81.1983 156.383 80.7959 156.315 80.4219 156.179C80.0479 156.043 79.7249 155.839 79.4529 155.567L80.0139 154.666C80.4673 155.119 81.0113 155.346 81.6459 155.346C82.0539 155.346 82.3996 155.233 82.6829 155.006C82.9776 154.779 83.2496 154.394 83.4989 153.85L83.8899 152.983L79.8949 144.058H81.1529L84.5189 151.657L87.8849 144.058H89.0749ZM98.182 141.321C97.6607 141.321 97.264 141.463 96.992 141.746C96.7313 142.029 96.601 142.449 96.601 143.004V144.058H99.355V145.078H96.635V153H95.428V145.078H93.83V144.058H95.428V142.953C95.428 142.137 95.6603 141.491 96.125 141.015C96.601 140.539 97.2697 140.301 98.131 140.301C98.471 140.301 98.7997 140.352 99.117 140.454C99.4343 140.545 99.7007 140.681 99.916 140.862L99.508 141.763C99.1567 141.468 98.7147 141.321 98.182 141.321ZM104.49 153.085C103.629 153.085 102.853 152.892 102.161 152.507C101.47 152.11 100.926 151.566 100.529 150.875C100.133 150.184 99.9343 149.402 99.9343 148.529C99.9343 147.656 100.133 146.874 100.529 146.183C100.926 145.492 101.47 144.953 102.161 144.568C102.853 144.183 103.629 143.99 104.49 143.99C105.352 143.99 106.128 144.183 106.819 144.568C107.511 144.953 108.049 145.492 108.434 146.183C108.831 146.874 109.029 147.656 109.029 148.529C109.029 149.402 108.831 150.184 108.434 150.875C108.049 151.566 107.511 152.11 106.819 152.507C106.128 152.892 105.352 153.085 104.49 153.085ZM104.49 152.014C105.125 152.014 105.692 151.872 106.19 151.589C106.7 151.294 107.097 150.881 107.38 150.348C107.664 149.815 107.805 149.209 107.805 148.529C107.805 147.849 107.664 147.243 107.38 146.71C107.097 146.177 106.7 145.769 106.19 145.486C105.692 145.191 105.125 145.044 104.49 145.044C103.856 145.044 103.283 145.191 102.773 145.486C102.275 145.769 101.878 146.177 101.583 146.71C101.3 147.243 101.158 147.849 101.158 148.529C101.158 149.209 101.3 149.815 101.583 150.348C101.878 150.881 102.275 151.294 102.773 151.589C103.283 151.872 103.856 152.014 104.49 152.014ZM112.65 145.809C112.933 145.208 113.352 144.755 113.908 144.449C114.474 144.143 115.171 143.99 115.999 143.99V145.163L115.71 145.146C114.769 145.146 114.032 145.435 113.5 146.013C112.967 146.591 112.701 147.401 112.701 148.444V153H111.494V144.058H112.65V145.809ZM40.811 173.99C41.9783 173.99 42.8737 174.285 43.497 174.874C44.1203 175.452 44.432 176.313 44.432 177.458V183H43.276V181.606C43.004 182.071 42.6017 182.433 42.069 182.694C41.5477 182.955 40.9243 183.085 40.199 183.085C39.2017 183.085 38.4083 182.847 37.819 182.371C37.2297 181.895 36.935 181.266 36.935 180.484C36.935 179.725 37.207 179.113 37.751 178.648C38.3063 178.183 39.1847 177.951 40.386 177.951H43.225V177.407C43.225 176.636 43.0097 176.053 42.579 175.656C42.1483 175.248 41.5193 175.044 40.692 175.044C40.1253 175.044 39.5813 175.14 39.06 175.333C38.5387 175.514 38.091 175.769 37.717 176.098L37.173 175.197C37.6263 174.812 38.1703 174.517 38.805 174.313C39.4397 174.098 40.1083 173.99 40.811 173.99ZM40.386 182.133C41.066 182.133 41.6497 181.98 42.137 181.674C42.6243 181.357 42.987 180.903 43.225 180.314V178.852H40.42C38.89 178.852 38.125 179.385 38.125 180.45C38.125 180.971 38.3233 181.385 38.72 181.691C39.1167 181.986 39.672 182.133 40.386 182.133ZM55.7683 174.058V183H54.6123V181.368C54.295 181.912 53.8587 182.337 53.3033 182.643C52.748 182.938 52.1133 183.085 51.3993 183.085C50.232 183.085 49.3083 182.762 48.6283 182.116C47.9597 181.459 47.6253 180.501 47.6253 179.243V174.058H48.8323V179.124C48.8323 180.065 49.0647 180.779 49.5293 181.266C49.994 181.753 50.657 181.997 51.5183 181.997C52.459 181.997 53.2013 181.714 53.7453 181.147C54.2893 180.569 54.5613 179.77 54.5613 178.75V174.058H55.7683ZM62.8548 183.085C61.9708 183.085 61.1775 182.892 60.4748 182.507C59.7835 182.122 59.2395 181.583 58.8428 180.892C58.4462 180.189 58.2478 179.402 58.2478 178.529C58.2478 177.656 58.4462 176.874 58.8428 176.183C59.2395 175.492 59.7835 174.953 60.4748 174.568C61.1775 174.183 61.9708 173.99 62.8548 173.99C63.6255 173.99 64.3112 174.143 64.9118 174.449C65.5238 174.744 66.0055 175.18 66.3568 175.758L65.4558 176.37C65.1612 175.928 64.7872 175.599 64.3338 175.384C63.8805 175.157 63.3875 175.044 62.8548 175.044C62.2088 175.044 61.6252 175.191 61.1038 175.486C60.5938 175.769 60.1915 176.177 59.8968 176.71C59.6135 177.243 59.4718 177.849 59.4718 178.529C59.4718 179.22 59.6135 179.832 59.8968 180.365C60.1915 180.886 60.5938 181.294 61.1038 181.589C61.6252 181.872 62.2088 182.014 62.8548 182.014C63.3875 182.014 63.8805 181.906 64.3338 181.691C64.7872 181.476 65.1612 181.147 65.4558 180.705L66.3568 181.317C66.0055 181.895 65.5238 182.337 64.9118 182.643C64.2998 182.938 63.6142 183.085 62.8548 183.085ZM73.5365 182.456C73.3099 182.66 73.0265 182.819 72.6865 182.932C72.3579 183.034 72.0122 183.085 71.6495 183.085C70.8109 183.085 70.1649 182.858 69.7115 182.405C69.2582 181.952 69.0315 181.311 69.0315 180.484V175.078H67.4335V174.058H69.0315V172.103H70.2385V174.058H72.9585V175.078H70.2385V180.416C70.2385 180.949 70.3689 181.357 70.6295 181.64C70.9015 181.912 71.2869 182.048 71.7855 182.048C72.0349 182.048 72.2729 182.008 72.4995 181.929C72.7375 181.85 72.9415 181.736 73.1115 181.589L73.5365 182.456ZM75.7338 174.058H76.9408V183H75.7338V174.058ZM76.3458 172.103C76.0964 172.103 75.8868 172.018 75.7168 171.848C75.5468 171.678 75.4618 171.474 75.4618 171.236C75.4618 171.009 75.5468 170.811 75.7168 170.641C75.8868 170.471 76.0964 170.386 76.3458 170.386C76.5951 170.386 76.8048 170.471 76.9748 170.641C77.1448 170.8 77.2298 170.992 77.2298 171.219C77.2298 171.468 77.1448 171.678 76.9748 171.848C76.8048 172.018 76.5951 172.103 76.3458 172.103ZM83.9542 183.085C83.0929 183.085 82.3165 182.892 81.6252 182.507C80.9339 182.11 80.3899 181.566 79.9932 180.875C79.5965 180.184 79.3982 179.402 79.3982 178.529C79.3982 177.656 79.5965 176.874 79.9932 176.183C80.3899 175.492 80.9339 174.953 81.6252 174.568C82.3165 174.183 83.0929 173.99 83.9542 173.99C84.8155 173.99 85.5919 174.183 86.2832 174.568C86.9745 174.953 87.5129 175.492 87.8982 176.183C88.2949 176.874 88.4932 177.656 88.4932 178.529C88.4932 179.402 88.2949 180.184 87.8982 180.875C87.5129 181.566 86.9745 182.11 86.2832 182.507C85.5919 182.892 84.8155 183.085 83.9542 183.085ZM83.9542 182.014C84.5889 182.014 85.1555 181.872 85.6542 181.589C86.1642 181.294 86.5609 180.881 86.8442 180.348C87.1275 179.815 87.2692 179.209 87.2692 178.529C87.2692 177.849 87.1275 177.243 86.8442 176.71C86.5609 176.177 86.1642 175.769 85.6542 175.486C85.1555 175.191 84.5889 175.044 83.9542 175.044C83.3195 175.044 82.7472 175.191 82.2372 175.486C81.7385 175.769 81.3419 176.177 81.0472 176.71C80.7639 177.243 80.6222 177.849 80.6222 178.529C80.6222 179.209 80.7639 179.815 81.0472 180.348C81.3419 180.881 81.7385 181.294 82.2372 181.589C82.7472 181.872 83.3195 182.014 83.9542 182.014ZM95.5134 173.99C96.6354 173.99 97.5251 174.319 98.1824 174.976C98.8511 175.622 99.1854 176.568 99.1854 177.815V183H97.9784V177.934C97.9784 177.005 97.7461 176.296 97.2814 175.809C96.8167 175.322 96.1537 175.078 95.2924 175.078C94.3291 175.078 93.5641 175.367 92.9974 175.945C92.4421 176.512 92.1644 177.299 92.1644 178.308V183H90.9574V174.058H92.1134V175.707C92.4421 175.163 92.8954 174.744 93.4734 174.449C94.0627 174.143 94.7427 173.99 95.5134 173.99ZM111.519 173.99C112.357 173.99 113.117 174.183 113.797 174.568C114.477 174.942 115.009 175.475 115.395 176.166C115.78 176.857 115.973 177.645 115.973 178.529C115.973 179.424 115.78 180.218 115.395 180.909C115.009 181.6 114.477 182.139 113.797 182.524C113.128 182.898 112.369 183.085 111.519 183.085C110.793 183.085 110.136 182.938 109.547 182.643C108.969 182.337 108.493 181.895 108.119 181.317V186.298H106.912V174.058H108.068V175.826C108.43 175.237 108.906 174.783 109.496 174.466C110.096 174.149 110.771 173.99 111.519 173.99ZM111.434 182.014C112.057 182.014 112.624 181.872 113.134 181.589C113.644 181.294 114.04 180.881 114.324 180.348C114.618 179.815 114.766 179.209 114.766 178.529C114.766 177.849 114.618 177.248 114.324 176.727C114.04 176.194 113.644 175.781 113.134 175.486C112.624 175.191 112.057 175.044 111.434 175.044C110.799 175.044 110.227 175.191 109.717 175.486C109.218 175.781 108.821 176.194 108.527 176.727C108.243 177.248 108.102 177.849 108.102 178.529C108.102 179.209 108.243 179.815 108.527 180.348C108.821 180.881 109.218 181.294 109.717 181.589C110.227 181.872 110.799 182.014 111.434 182.014ZM122.989 173.99C124.111 173.99 125.001 174.319 125.658 174.976C126.327 175.622 126.661 176.568 126.661 177.815V183H125.454V177.934C125.454 177.005 125.222 176.296 124.757 175.809C124.292 175.322 123.629 175.078 122.768 175.078C121.805 175.078 121.04 175.367 120.473 175.945C119.918 176.512 119.64 177.299 119.64 178.308V183H118.433V170.386H119.64V175.622C119.969 175.101 120.422 174.698 121 174.415C121.578 174.132 122.241 173.99 122.989 173.99ZM133.066 173.99C134.233 173.99 135.129 174.285 135.752 174.874C136.375 175.452 136.687 176.313 136.687 177.458V183H135.531V181.606C135.259 182.071 134.857 182.433 134.324 182.694C133.803 182.955 133.179 183.085 132.454 183.085C131.457 183.085 130.663 182.847 130.074 182.371C129.485 181.895 129.19 181.266 129.19 180.484C129.19 179.725 129.462 179.113 130.006 178.648C130.561 178.183 131.44 177.951 132.641 177.951H135.48V177.407C135.48 176.636 135.265 176.053 134.834 175.656C134.403 175.248 133.774 175.044 132.947 175.044C132.38 175.044 131.836 175.14 131.315 175.333C130.794 175.514 130.346 175.769 129.972 176.098L129.428 175.197C129.881 174.812 130.425 174.517 131.06 174.313C131.695 174.098 132.363 173.99 133.066 173.99ZM132.641 182.133C133.321 182.133 133.905 181.98 134.392 181.674C134.879 181.357 135.242 180.903 135.48 180.314V178.852H132.675C131.145 178.852 130.38 179.385 130.38 180.45C130.38 180.971 130.578 181.385 130.975 181.691C131.372 181.986 131.927 182.133 132.641 182.133ZM142.362 183.085C141.637 183.085 140.94 182.983 140.271 182.779C139.614 182.564 139.098 182.297 138.724 181.98L139.268 181.028C139.642 181.323 140.113 181.566 140.679 181.759C141.246 181.94 141.835 182.031 142.447 182.031C143.263 182.031 143.864 181.906 144.249 181.657C144.646 181.396 144.844 181.034 144.844 180.569C144.844 180.24 144.737 179.985 144.521 179.804C144.306 179.611 144.034 179.47 143.705 179.379C143.377 179.277 142.94 179.181 142.396 179.09C141.671 178.954 141.087 178.818 140.645 178.682C140.203 178.535 139.824 178.291 139.506 177.951C139.2 177.611 139.047 177.141 139.047 176.54C139.047 175.792 139.359 175.18 139.982 174.704C140.606 174.228 141.473 173.99 142.583 173.99C143.161 173.99 143.739 174.069 144.317 174.228C144.895 174.375 145.371 174.574 145.745 174.823L145.218 175.792C144.482 175.282 143.603 175.027 142.583 175.027C141.813 175.027 141.229 175.163 140.832 175.435C140.447 175.707 140.254 176.064 140.254 176.506C140.254 176.846 140.362 177.118 140.577 177.322C140.804 177.526 141.082 177.679 141.41 177.781C141.739 177.872 142.192 177.968 142.77 178.07C143.484 178.206 144.057 178.342 144.487 178.478C144.918 178.614 145.286 178.846 145.592 179.175C145.898 179.504 146.051 179.957 146.051 180.535C146.051 181.317 145.723 181.94 145.065 182.405C144.419 182.858 143.518 183.085 142.362 183.085ZM156.069 178.903H148.589C148.657 179.832 149.014 180.586 149.66 181.164C150.306 181.731 151.122 182.014 152.108 182.014C152.663 182.014 153.173 181.918 153.638 181.725C154.102 181.521 154.505 181.226 154.845 180.841L155.525 181.623C155.128 182.099 154.629 182.462 154.029 182.711C153.439 182.96 152.788 183.085 152.074 183.085C151.156 183.085 150.34 182.892 149.626 182.507C148.923 182.11 148.373 181.566 147.977 180.875C147.58 180.184 147.382 179.402 147.382 178.529C147.382 177.656 147.569 176.874 147.943 176.183C148.328 175.492 148.849 174.953 149.507 174.568C150.175 174.183 150.923 173.99 151.751 173.99C152.578 173.99 153.32 174.183 153.978 174.568C154.635 174.953 155.151 175.492 155.525 176.183C155.899 176.863 156.086 177.645 156.086 178.529L156.069 178.903ZM151.751 175.027C150.889 175.027 150.164 175.305 149.575 175.86C148.997 176.404 148.668 177.118 148.589 178.002H154.93C154.85 177.118 154.516 176.404 153.927 175.86C153.349 175.305 152.623 175.027 151.751 175.027Z" fill="black"/>
<path d="M297.401 398.821H290.771L289.343 402H288.034L293.474 390.1H294.715L300.155 402H298.829L297.401 398.821ZM296.942 397.801L294.086 391.409L291.23 397.801H296.942ZM306.476 392.99C307.314 392.99 308.074 393.183 308.754 393.568C309.434 393.942 309.966 394.475 310.352 395.166C310.737 395.857 310.93 396.645 310.93 397.529C310.93 398.424 310.737 399.218 310.352 399.909C309.966 400.6 309.434 401.139 308.754 401.524C308.085 401.898 307.326 402.085 306.476 402.085C305.75 402.085 305.093 401.938 304.504 401.643C303.926 401.337 303.45 400.895 303.076 400.317V405.298H301.869V393.058H303.025V394.826C303.387 394.237 303.863 393.783 304.453 393.466C305.053 393.149 305.728 392.99 306.476 392.99ZM306.391 401.014C307.014 401.014 307.581 400.872 308.091 400.589C308.601 400.294 308.997 399.881 309.281 399.348C309.575 398.815 309.723 398.209 309.723 397.529C309.723 396.849 309.575 396.248 309.281 395.727C308.997 395.194 308.601 394.781 308.091 394.486C307.581 394.191 307.014 394.044 306.391 394.044C305.756 394.044 305.184 394.191 304.674 394.486C304.175 394.781 303.778 395.194 303.484 395.727C303.2 396.248 303.059 396.849 303.059 397.529C303.059 398.209 303.2 398.815 303.484 399.348C303.778 399.881 304.175 400.294 304.674 400.589C305.184 400.872 305.756 401.014 306.391 401.014ZM321.55 389.386V402H320.394V400.232C320.031 400.833 319.55 401.292 318.949 401.609C318.36 401.926 317.691 402.085 316.943 402.085C316.104 402.085 315.345 401.892 314.665 401.507C313.985 401.122 313.452 400.583 313.067 399.892C312.682 399.201 312.489 398.413 312.489 397.529C312.489 396.645 312.682 395.857 313.067 395.166C313.452 394.475 313.985 393.942 314.665 393.568C315.345 393.183 316.104 392.99 316.943 392.99C317.668 392.99 318.32 393.143 318.898 393.449C319.487 393.744 319.969 394.18 320.343 394.758V389.386H321.55ZM317.045 401.014C317.668 401.014 318.229 400.872 318.728 400.589C319.238 400.294 319.635 399.881 319.918 399.348C320.213 398.815 320.36 398.209 320.36 397.529C320.36 396.849 320.213 396.243 319.918 395.71C319.635 395.177 319.238 394.769 318.728 394.486C318.229 394.191 317.668 394.044 317.045 394.044C316.41 394.044 315.838 394.191 315.328 394.486C314.829 394.769 314.433 395.177 314.138 395.71C313.855 396.243 313.713 396.849 313.713 397.529C313.713 398.209 313.855 398.815 314.138 399.348C314.433 399.881 314.829 400.294 315.328 400.589C315.838 400.872 316.41 401.014 317.045 401.014ZM328.04 392.99C329.207 392.99 330.102 393.285 330.726 393.874C331.349 394.452 331.661 395.313 331.661 396.458V402H330.505V400.606C330.233 401.071 329.83 401.433 329.298 401.694C328.776 401.955 328.153 402.085 327.428 402.085C326.43 402.085 325.637 401.847 325.048 401.371C324.458 400.895 324.164 400.266 324.164 399.484C324.164 398.725 324.436 398.113 324.98 397.648C325.535 397.183 326.413 396.951 327.615 396.951H330.454V396.407C330.454 395.636 330.238 395.053 329.808 394.656C329.377 394.248 328.748 394.044 327.921 394.044C327.354 394.044 326.81 394.14 326.289 394.333C325.767 394.514 325.32 394.769 324.946 395.098L324.402 394.197C324.855 393.812 325.399 393.517 326.034 393.313C326.668 393.098 327.337 392.99 328.04 392.99ZM327.615 401.133C328.295 401.133 328.878 400.98 329.366 400.674C329.853 400.357 330.216 399.903 330.454 399.314V397.852H327.649C326.119 397.852 325.354 398.385 325.354 399.45C325.354 399.971 325.552 400.385 325.949 400.691C326.345 400.986 326.901 401.133 327.615 401.133ZM339.648 401.456C339.421 401.66 339.138 401.819 338.798 401.932C338.469 402.034 338.124 402.085 337.761 402.085C336.922 402.085 336.276 401.858 335.823 401.405C335.37 400.952 335.143 400.311 335.143 399.484V394.078H333.545V393.058H335.143V391.103H336.35V393.058H339.07V394.078H336.35V399.416C336.35 399.949 336.48 400.357 336.741 400.64C337.013 400.912 337.398 401.048 337.897 401.048C338.146 401.048 338.384 401.008 338.611 400.929C338.849 400.85 339.053 400.736 339.223 400.589L339.648 401.456ZM349.316 397.903H341.836C341.904 398.832 342.261 399.586 342.907 400.164C343.553 400.731 344.369 401.014 345.355 401.014C345.91 401.014 346.42 400.918 346.885 400.725C347.349 400.521 347.752 400.226 348.092 399.841L348.772 400.623C348.375 401.099 347.876 401.462 347.276 401.711C346.686 401.96 346.035 402.085 345.321 402.085C344.403 402.085 343.587 401.892 342.873 401.507C342.17 401.11 341.62 400.566 341.224 399.875C340.827 399.184 340.629 398.402 340.629 397.529C340.629 396.656 340.816 395.874 341.19 395.183C341.575 394.492 342.096 393.953 342.754 393.568C343.422 393.183 344.17 392.99 344.998 392.99C345.825 392.99 346.567 393.183 347.225 393.568C347.882 393.953 348.398 394.492 348.772 395.183C349.146 395.863 349.333 396.645 349.333 397.529L349.316 397.903ZM344.998 394.027C344.136 394.027 343.411 394.305 342.822 394.86C342.244 395.404 341.915 396.118 341.836 397.002H348.177C348.097 396.118 347.763 395.404 347.174 394.86C346.596 394.305 345.87 394.027 344.998 394.027ZM360.846 392.99C361.684 392.99 362.444 393.183 363.124 393.568C363.804 393.942 364.336 394.475 364.722 395.166C365.107 395.857 365.3 396.645 365.3 397.529C365.3 398.424 365.107 399.218 364.722 399.909C364.336 400.6 363.804 401.139 363.124 401.524C362.455 401.898 361.696 402.085 360.846 402.085C360.12 402.085 359.463 401.938 358.874 401.643C358.296 401.337 357.82 400.895 357.446 400.317V405.298H356.239V393.058H357.395V394.826C357.757 394.237 358.233 393.783 358.823 393.466C359.423 393.149 360.098 392.99 360.846 392.99ZM360.761 401.014C361.384 401.014 361.951 400.872 362.461 400.589C362.971 400.294 363.367 399.881 363.651 399.348C363.945 398.815 364.093 398.209 364.093 397.529C364.093 396.849 363.945 396.248 363.651 395.727C363.367 395.194 362.971 394.781 362.461 394.486C361.951 394.191 361.384 394.044 360.761 394.044C360.126 394.044 359.554 394.191 359.044 394.486C358.545 394.781 358.148 395.194 357.854 395.727C357.57 396.248 357.429 396.849 357.429 397.529C357.429 398.209 357.57 398.815 357.854 399.348C358.148 399.881 358.545 400.294 359.044 400.589C359.554 400.872 360.126 401.014 360.761 401.014ZM368.916 394.809C369.199 394.208 369.619 393.755 370.174 393.449C370.741 393.143 371.438 392.99 372.265 392.99V394.163L371.976 394.146C371.035 394.146 370.299 394.435 369.766 395.013C369.233 395.591 368.967 396.401 368.967 397.444V402H367.76V393.058H368.916V394.809ZM374.451 393.058H375.658V402H374.451V393.058ZM375.063 391.103C374.813 391.103 374.604 391.018 374.434 390.848C374.264 390.678 374.179 390.474 374.179 390.236C374.179 390.009 374.264 389.811 374.434 389.641C374.604 389.471 374.813 389.386 375.063 389.386C375.312 389.386 375.522 389.471 375.692 389.641C375.862 389.8 375.947 389.992 375.947 390.219C375.947 390.468 375.862 390.678 375.692 390.848C375.522 391.018 375.312 391.103 375.063 391.103ZM382.722 402.085C381.838 402.085 381.045 401.892 380.342 401.507C379.651 401.122 379.107 400.583 378.71 399.892C378.313 399.189 378.115 398.402 378.115 397.529C378.115 396.656 378.313 395.874 378.71 395.183C379.107 394.492 379.651 393.953 380.342 393.568C381.045 393.183 381.838 392.99 382.722 392.99C383.493 392.99 384.178 393.143 384.779 393.449C385.391 393.744 385.873 394.18 386.224 394.758L385.323 395.37C385.028 394.928 384.654 394.599 384.201 394.384C383.748 394.157 383.255 394.044 382.722 394.044C382.076 394.044 381.492 394.191 380.971 394.486C380.461 394.769 380.059 395.177 379.764 395.71C379.481 396.243 379.339 396.849 379.339 397.529C379.339 398.22 379.481 398.832 379.764 399.365C380.059 399.886 380.461 400.294 380.971 400.589C381.492 400.872 382.076 401.014 382.722 401.014C383.255 401.014 383.748 400.906 384.201 400.691C384.654 400.476 385.028 400.147 385.323 399.705L386.224 400.317C385.873 400.895 385.391 401.337 384.779 401.643C384.167 401.938 383.481 402.085 382.722 402.085ZM396.232 397.903H388.752C388.82 398.832 389.177 399.586 389.823 400.164C390.469 400.731 391.285 401.014 392.271 401.014C392.826 401.014 393.336 400.918 393.801 400.725C394.265 400.521 394.668 400.226 395.008 399.841L395.688 400.623C395.291 401.099 394.792 401.462 394.192 401.711C393.602 401.96 392.951 402.085 392.237 402.085C391.319 402.085 390.503 401.892 389.789 401.507C389.086 401.11 388.536 400.566 388.14 399.875C387.743 399.184 387.545 398.402 387.545 397.529C387.545 396.656 387.732 395.874 388.106 395.183C388.491 394.492 389.012 393.953 389.67 393.568C390.338 393.183 391.086 392.99 391.914 392.99C392.741 392.99 393.483 393.183 394.141 393.568C394.798 393.953 395.314 394.492 395.688 395.183C396.062 395.863 396.249 396.645 396.249 397.529L396.232 397.903ZM391.914 394.027C391.052 394.027 390.327 394.305 389.738 394.86C389.16 395.404 388.831 396.118 388.752 397.002H395.093C395.013 396.118 394.679 395.404 394.09 394.86C393.512 394.305 392.786 394.027 391.914 394.027ZM406.283 392.99C407.45 392.99 408.345 393.285 408.969 393.874C409.592 394.452 409.904 395.313 409.904 396.458V402H408.748V400.606C408.476 401.071 408.073 401.433 407.541 401.694C407.019 401.955 406.396 402.085 405.671 402.085C404.673 402.085 403.88 401.847 403.291 401.371C402.701 400.895 402.407 400.266 402.407 399.484C402.407 398.725 402.679 398.113 403.223 397.648C403.778 397.183 404.656 396.951 405.858 396.951H408.697V396.407C408.697 395.636 408.481 395.053 408.051 394.656C407.62 394.248 406.991 394.044 406.164 394.044C405.597 394.044 405.053 394.14 404.532 394.333C404.01 394.514 403.563 394.769 403.189 395.098L402.645 394.197C403.098 393.812 403.642 393.517 404.277 393.313C404.911 393.098 405.58 392.99 406.283 392.99ZM405.858 401.133C406.538 401.133 407.121 400.98 407.609 400.674C408.096 400.357 408.459 399.903 408.697 399.314V397.852H405.892C404.362 397.852 403.597 398.385 403.597 399.45C403.597 399.971 403.795 400.385 404.192 400.691C404.588 400.986 405.144 401.133 405.858 401.133ZM417.738 392.99C418.86 392.99 419.75 393.319 420.407 393.976C421.076 394.622 421.41 395.568 421.41 396.815V402H420.203V396.934C420.203 396.005 419.971 395.296 419.506 394.809C419.041 394.322 418.378 394.078 417.517 394.078C416.554 394.078 415.789 394.367 415.222 394.945C414.667 395.512 414.389 396.299 414.389 397.308V402H413.182V393.058H414.338V394.707C414.667 394.163 415.12 393.744 415.698 393.449C416.287 393.143 416.967 392.99 417.738 392.99ZM432.88 389.386V402H431.724V400.232C431.361 400.833 430.88 401.292 430.279 401.609C429.69 401.926 429.021 402.085 428.273 402.085C427.434 402.085 426.675 401.892 425.995 401.507C425.315 401.122 424.782 400.583 424.397 399.892C424.012 399.201 423.819 398.413 423.819 397.529C423.819 396.645 424.012 395.857 424.397 395.166C424.782 394.475 425.315 393.942 425.995 393.568C426.675 393.183 427.434 392.99 428.273 392.99C428.998 392.99 429.65 393.143 430.228 393.449C430.817 393.744 431.299 394.18 431.673 394.758V389.386H432.88ZM428.375 401.014C428.998 401.014 429.559 400.872 430.058 400.589C430.568 400.294 430.965 399.881 431.248 399.348C431.543 398.815 431.69 398.209 431.69 397.529C431.69 396.849 431.543 396.243 431.248 395.71C430.965 395.177 430.568 394.769 430.058 394.486C429.559 394.191 428.998 394.044 428.375 394.044C427.74 394.044 427.168 394.191 426.658 394.486C426.159 394.769 425.763 395.177 425.468 395.71C425.185 396.243 425.043 396.849 425.043 397.529C425.043 398.209 425.185 398.815 425.468 399.348C425.763 399.881 426.159 400.294 426.658 400.589C427.168 400.872 427.74 401.014 428.375 401.014ZM444.397 402.085C443.513 402.085 442.719 401.892 442.017 401.507C441.325 401.122 440.781 400.583 440.385 399.892C439.988 399.189 439.79 398.402 439.79 397.529C439.79 396.656 439.988 395.874 440.385 395.183C440.781 394.492 441.325 393.953 442.017 393.568C442.719 393.183 443.513 392.99 444.397 392.99C445.167 392.99 445.853 393.143 446.454 393.449C447.066 393.744 447.547 394.18 447.899 394.758L446.998 395.37C446.703 394.928 446.329 394.599 445.876 394.384C445.422 394.157 444.929 394.044 444.397 394.044C443.751 394.044 443.167 394.191 442.646 394.486C442.136 394.769 441.733 395.177 441.439 395.71C441.155 396.243 441.014 396.849 441.014 397.529C441.014 398.22 441.155 398.832 441.439 399.365C441.733 399.886 442.136 400.294 442.646 400.589C443.167 400.872 443.751 401.014 444.397 401.014C444.929 401.014 445.422 400.906 445.876 400.691C446.329 400.476 446.703 400.147 446.998 399.705L447.899 400.317C447.547 400.895 447.066 401.337 446.454 401.643C445.842 401.938 445.156 402.085 444.397 402.085ZM453.776 402.085C452.914 402.085 452.138 401.892 451.447 401.507C450.755 401.11 450.211 400.566 449.815 399.875C449.418 399.184 449.22 398.402 449.22 397.529C449.22 396.656 449.418 395.874 449.815 395.183C450.211 394.492 450.755 393.953 451.447 393.568C452.138 393.183 452.914 392.99 453.776 392.99C454.637 392.99 455.413 393.183 456.105 393.568C456.796 393.953 457.334 394.492 457.72 395.183C458.116 395.874 458.315 396.656 458.315 397.529C458.315 398.402 458.116 399.184 457.72 399.875C457.334 400.566 456.796 401.11 456.105 401.507C455.413 401.892 454.637 402.085 453.776 402.085ZM453.776 401.014C454.41 401.014 454.977 400.872 455.476 400.589C455.986 400.294 456.382 399.881 456.666 399.348C456.949 398.815 457.091 398.209 457.091 397.529C457.091 396.849 456.949 396.243 456.666 395.71C456.382 395.177 455.986 394.769 455.476 394.486C454.977 394.191 454.41 394.044 453.776 394.044C453.141 394.044 452.569 394.191 452.059 394.486C451.56 394.769 451.163 395.177 450.869 395.71C450.585 396.243 450.444 396.849 450.444 397.529C450.444 398.209 450.585 398.815 450.869 399.348C451.163 399.881 451.56 400.294 452.059 400.589C452.569 400.872 453.141 401.014 453.776 401.014ZM465.335 392.99C466.457 392.99 467.346 393.319 468.004 393.976C468.672 394.622 469.007 395.568 469.007 396.815V402H467.8V396.934C467.8 396.005 467.567 395.296 467.103 394.809C466.638 394.322 465.975 394.078 465.114 394.078C464.15 394.078 463.385 394.367 462.819 394.945C462.263 395.512 461.986 396.299 461.986 397.308V402H460.779V393.058H461.935V394.707C462.263 394.163 462.717 393.744 463.295 393.449C463.884 393.143 464.564 392.99 465.335 392.99ZM476.993 401.456C476.766 401.66 476.483 401.819 476.143 401.932C475.814 402.034 475.468 402.085 475.106 402.085C474.267 402.085 473.621 401.858 473.168 401.405C472.714 400.952 472.488 400.311 472.488 399.484V394.078H470.89V393.058H472.488V391.103H473.695V393.058H476.415V394.078H473.695V399.416C473.695 399.949 473.825 400.357 474.086 400.64C474.358 400.912 474.743 401.048 475.242 401.048C475.491 401.048 475.729 401.008 475.956 400.929C476.194 400.85 476.398 400.736 476.568 400.589L476.993 401.456ZM486.66 397.903H479.18C479.248 398.832 479.605 399.586 480.251 400.164C480.897 400.731 481.713 401.014 482.699 401.014C483.255 401.014 483.765 400.918 484.229 400.725C484.694 400.521 485.096 400.226 485.436 399.841L486.116 400.623C485.72 401.099 485.221 401.462 484.62 401.711C484.031 401.96 483.379 402.085 482.665 402.085C481.747 402.085 480.931 401.892 480.217 401.507C479.515 401.11 478.965 400.566 478.568 399.875C478.172 399.184 477.973 398.402 477.973 397.529C477.973 396.656 478.16 395.874 478.534 395.183C478.92 394.492 479.441 393.953 480.098 393.568C480.767 393.183 481.515 392.99 482.342 392.99C483.17 392.99 483.912 393.183 484.569 393.568C485.227 393.953 485.742 394.492 486.116 395.183C486.49 395.863 486.677 396.645 486.677 397.529L486.66 397.903ZM482.342 394.027C481.481 394.027 480.756 394.305 480.166 394.86C479.588 395.404 479.26 396.118 479.18 397.002H485.521C485.442 396.118 485.108 395.404 484.518 394.86C483.94 394.305 483.215 394.027 482.342 394.027ZM493.69 392.99C494.812 392.99 495.702 393.319 496.359 393.976C497.028 394.622 497.362 395.568 497.362 396.815V402H496.155V396.934C496.155 396.005 495.923 395.296 495.458 394.809C494.994 394.322 494.331 394.078 493.469 394.078C492.506 394.078 491.741 394.367 491.174 394.945C490.619 395.512 490.341 396.299 490.341 397.308V402H489.134V393.058H490.29V394.707C490.619 394.163 491.072 393.744 491.65 393.449C492.24 393.143 492.92 392.99 493.69 392.99ZM505.348 401.456C505.121 401.66 504.838 401.819 504.498 401.932C504.169 402.034 503.824 402.085 503.461 402.085C502.622 402.085 501.976 401.858 501.523 401.405C501.07 400.952 500.843 400.311 500.843 399.484V394.078H499.245V393.058H500.843V391.103H502.05V393.058H504.77V394.078H502.05V399.416C502.05 399.949 502.18 400.357 502.441 400.64C502.713 400.912 503.098 401.048 503.597 401.048C503.846 401.048 504.084 401.008 504.311 400.929C504.549 400.85 504.753 400.736 504.923 400.589L505.348 401.456ZM293.338 432.085C292.477 432.085 291.7 431.892 291.009 431.507C290.318 431.11 289.774 430.566 289.377 429.875C288.98 429.184 288.782 428.402 288.782 427.529C288.782 426.656 288.98 425.874 289.377 425.183C289.774 424.492 290.318 423.953 291.009 423.568C291.7 423.183 292.477 422.99 293.338 422.99C294.199 422.99 294.976 423.183 295.667 423.568C296.358 423.953 296.897 424.492 297.282 425.183C297.679 425.874 297.877 426.656 297.877 427.529C297.877 428.402 297.679 429.184 297.282 429.875C296.897 430.566 296.358 431.11 295.667 431.507C294.976 431.892 294.199 432.085 293.338 432.085ZM293.338 431.014C293.973 431.014 294.539 430.872 295.038 430.589C295.548 430.294 295.945 429.881 296.228 429.348C296.511 428.815 296.653 428.209 296.653 427.529C296.653 426.849 296.511 426.243 296.228 425.71C295.945 425.177 295.548 424.769 295.038 424.486C294.539 424.191 293.973 424.044 293.338 424.044C292.703 424.044 292.131 424.191 291.621 424.486C291.122 424.769 290.726 425.177 290.431 425.71C290.148 426.243 290.006 426.849 290.006 427.529C290.006 428.209 290.148 428.815 290.431 429.348C290.726 429.881 291.122 430.294 291.621 430.589C292.131 430.872 292.703 431.014 293.338 431.014ZM304.897 422.99C306.019 422.99 306.909 423.319 307.566 423.976C308.235 424.622 308.569 425.568 308.569 426.815V432H307.362V426.934C307.362 426.005 307.13 425.296 306.665 424.809C306.201 424.322 305.538 424.078 304.676 424.078C303.713 424.078 302.948 424.367 302.381 424.945C301.826 425.512 301.548 426.299 301.548 427.308V432H300.341V423.058H301.497V424.707C301.826 424.163 302.279 423.744 302.857 423.449C303.447 423.143 304.127 422.99 304.897 422.99ZM327.447 422.99C328.569 422.99 329.448 423.313 330.082 423.959C330.728 424.605 331.051 425.557 331.051 426.815V432H329.844V426.934C329.844 426.005 329.618 425.296 329.164 424.809C328.722 424.322 328.093 424.078 327.277 424.078C326.348 424.078 325.617 424.367 325.084 424.945C324.552 425.512 324.285 426.299 324.285 427.308V432H323.078V426.934C323.078 426.005 322.852 425.296 322.398 424.809C321.956 424.322 321.322 424.078 320.494 424.078C319.576 424.078 318.845 424.367 318.301 424.945C317.769 425.512 317.502 426.299 317.502 427.308V432H316.295V423.058H317.451V424.69C317.769 424.146 318.211 423.727 318.777 423.432C319.344 423.137 319.996 422.99 320.732 422.99C321.48 422.99 322.126 423.149 322.67 423.466C323.226 423.783 323.639 424.254 323.911 424.877C324.24 424.288 324.71 423.829 325.322 423.5C325.946 423.16 326.654 422.99 327.447 422.99ZM337.453 422.99C338.62 422.99 339.515 423.285 340.139 423.874C340.762 424.452 341.074 425.313 341.074 426.458V432H339.918V430.606C339.646 431.071 339.243 431.433 338.711 431.694C338.189 431.955 337.566 432.085 336.841 432.085C335.843 432.085 335.05 431.847 334.461 431.371C333.871 430.895 333.577 430.266 333.577 429.484C333.577 428.725 333.849 428.113 334.393 427.648C334.948 427.183 335.826 426.951 337.028 426.951H339.867V426.407C339.867 425.636 339.651 425.053 339.221 424.656C338.79 424.248 338.161 424.044 337.334 424.044C336.767 424.044 336.223 424.14 335.702 424.333C335.18 424.514 334.733 424.769 334.359 425.098L333.815 424.197C334.268 423.812 334.812 423.517 335.447 423.313C336.081 423.098 336.75 422.99 337.453 422.99ZM337.028 431.133C337.708 431.133 338.291 430.98 338.779 430.674C339.266 430.357 339.629 429.903 339.867 429.314V427.852H337.062C335.532 427.852 334.767 428.385 334.767 429.45C334.767 429.971 334.965 430.385 335.362 430.691C335.758 430.986 336.314 431.133 337.028 431.133ZM344.352 423.058H345.559V432H344.352V423.058ZM344.964 421.103C344.715 421.103 344.505 421.018 344.335 420.848C344.165 420.678 344.08 420.474 344.08 420.236C344.08 420.009 344.165 419.811 344.335 419.641C344.505 419.471 344.715 419.386 344.964 419.386C345.213 419.386 345.423 419.471 345.593 419.641C345.763 419.8 345.848 419.992 345.848 420.219C345.848 420.468 345.763 420.678 345.593 420.848C345.423 421.018 345.213 421.103 344.964 421.103ZM353.473 422.99C354.595 422.99 355.485 423.319 356.142 423.976C356.811 424.622 357.145 425.568 357.145 426.815V432H355.938V426.934C355.938 426.005 355.706 425.296 355.241 424.809C354.777 424.322 354.114 424.078 353.252 424.078C352.289 424.078 351.524 424.367 350.957 424.945C350.402 425.512 350.124 426.299 350.124 427.308V432H348.917V423.058H350.073V424.707C350.402 424.163 350.855 423.744 351.433 423.449C352.023 423.143 352.703 422.99 353.473 422.99ZM369.478 422.99C370.317 422.99 371.076 423.183 371.756 423.568C372.436 423.942 372.969 424.475 373.354 425.166C373.74 425.857 373.932 426.645 373.932 427.529C373.932 428.424 373.74 429.218 373.354 429.909C372.969 430.6 372.436 431.139 371.756 431.524C371.088 431.898 370.328 432.085 369.478 432.085C368.753 432.085 368.096 431.938 367.506 431.643C366.928 431.337 366.452 430.895 366.078 430.317V435.298H364.871V423.058H366.027V424.826C366.39 424.237 366.866 423.783 367.455 423.466C368.056 423.149 368.73 422.99 369.478 422.99ZM369.393 431.014C370.017 431.014 370.583 430.872 371.093 430.589C371.603 430.294 372 429.881 372.283 429.348C372.578 428.815 372.725 428.209 372.725 427.529C372.725 426.849 372.578 426.248 372.283 425.727C372 425.194 371.603 424.781 371.093 424.486C370.583 424.191 370.017 424.044 369.393 424.044C368.759 424.044 368.186 424.191 367.676 424.486C367.178 424.781 366.781 425.194 366.486 425.727C366.203 426.248 366.061 426.849 366.061 427.529C366.061 428.209 366.203 428.815 366.486 429.348C366.781 429.881 367.178 430.294 367.676 430.589C368.186 430.872 368.759 431.014 369.393 431.014ZM379.471 422.99C380.638 422.99 381.534 423.285 382.157 423.874C382.78 424.452 383.092 425.313 383.092 426.458V432H381.936V430.606C381.664 431.071 381.262 431.433 380.729 431.694C380.208 431.955 379.584 432.085 378.859 432.085C377.862 432.085 377.068 431.847 376.479 431.371C375.89 430.895 375.595 430.266 375.595 429.484C375.595 428.725 375.867 428.113 376.411 427.648C376.966 427.183 377.845 426.951 379.046 426.951H381.885V426.407C381.885 425.636 381.67 425.053 381.239 424.656C380.808 424.248 380.179 424.044 379.352 424.044C378.785 424.044 378.241 424.14 377.72 424.333C377.199 424.514 376.751 424.769 376.377 425.098L375.833 424.197C376.286 423.812 376.83 423.517 377.465 423.313C378.1 423.098 378.768 422.99 379.471 422.99ZM379.046 431.133C379.726 431.133 380.31 430.98 380.797 430.674C381.284 430.357 381.647 429.903 381.885 429.314V427.852H379.08C377.55 427.852 376.785 428.385 376.785 429.45C376.785 429.971 376.983 430.385 377.38 430.691C377.777 430.986 378.332 431.133 379.046 431.133ZM394.683 423.058V430.912C394.683 432.431 394.309 433.553 393.561 434.278C392.824 435.015 391.708 435.383 390.212 435.383C389.384 435.383 388.597 435.258 387.849 435.009C387.112 434.771 386.511 434.437 386.047 434.006L386.659 433.088C387.089 433.473 387.611 433.774 388.223 433.989C388.846 434.204 389.498 434.312 390.178 434.312C391.311 434.312 392.144 434.046 392.677 433.513C393.209 432.992 393.476 432.176 393.476 431.065V429.926C393.102 430.493 392.609 430.923 391.997 431.218C391.396 431.513 390.727 431.66 389.991 431.66C389.152 431.66 388.387 431.479 387.696 431.116C387.016 430.742 386.477 430.226 386.081 429.569C385.695 428.9 385.503 428.147 385.503 427.308C385.503 426.469 385.695 425.721 386.081 425.064C386.477 424.407 387.016 423.897 387.696 423.534C388.376 423.171 389.141 422.99 389.991 422.99C390.75 422.99 391.436 423.143 392.048 423.449C392.66 423.755 393.153 424.197 393.527 424.775V423.058H394.683ZM390.11 430.589C390.756 430.589 391.339 430.453 391.861 430.181C392.382 429.898 392.784 429.507 393.068 429.008C393.362 428.509 393.51 427.943 393.51 427.308C393.51 426.673 393.362 426.112 393.068 425.625C392.784 425.126 392.382 424.741 391.861 424.469C391.351 424.186 390.767 424.044 390.11 424.044C389.464 424.044 388.88 424.18 388.359 424.452C387.849 424.724 387.446 425.109 387.152 425.608C386.868 426.107 386.727 426.673 386.727 427.308C386.727 427.943 386.868 428.509 387.152 429.008C387.446 429.507 387.849 429.898 388.359 430.181C388.88 430.453 389.464 430.589 390.11 430.589ZM405.844 427.903H398.364C398.432 428.832 398.789 429.586 399.435 430.164C400.081 430.731 400.897 431.014 401.883 431.014C402.438 431.014 402.948 430.918 403.413 430.725C403.878 430.521 404.28 430.226 404.62 429.841L405.3 430.623C404.903 431.099 404.405 431.462 403.804 431.711C403.215 431.96 402.563 432.085 401.849 432.085C400.931 432.085 400.115 431.892 399.401 431.507C398.698 431.11 398.149 430.566 397.752 429.875C397.355 429.184 397.157 428.402 397.157 427.529C397.157 426.656 397.344 425.874 397.718 425.183C398.103 424.492 398.625 423.953 399.282 423.568C399.951 423.183 400.699 422.99 401.526 422.99C402.353 422.99 403.096 423.183 403.753 423.568C404.41 423.953 404.926 424.492 405.3 425.183C405.674 425.863 405.861 426.645 405.861 427.529L405.844 427.903ZM401.526 424.027C400.665 424.027 399.939 424.305 399.35 424.86C398.772 425.404 398.443 426.118 398.364 427.002H404.705C404.626 426.118 404.291 425.404 403.702 424.86C403.124 424.305 402.399 424.027 401.526 424.027Z" fill="black"/>
<path d="M484.106 134.102C482.927 134.102 481.862 133.841 480.91 133.32C479.969 132.799 479.227 132.079 478.683 131.161C478.15 130.232 477.884 129.195 477.884 128.05C477.884 126.905 478.15 125.874 478.683 124.956C479.227 124.027 479.975 123.301 480.927 122.78C481.879 122.259 482.944 121.998 484.123 121.998C485.007 121.998 485.823 122.145 486.571 122.44C487.319 122.735 487.954 123.165 488.475 123.732L487.676 124.531C486.747 123.59 485.574 123.12 484.157 123.12C483.216 123.12 482.361 123.335 481.59 123.766C480.819 124.197 480.213 124.786 479.771 125.534C479.34 126.282 479.125 127.121 479.125 128.05C479.125 128.979 479.34 129.818 479.771 130.566C480.213 131.314 480.819 131.903 481.59 132.334C482.361 132.765 483.216 132.98 484.157 132.98C485.585 132.98 486.758 132.504 487.676 131.552L488.475 132.351C487.954 132.918 487.313 133.354 486.554 133.66C485.806 133.955 484.99 134.102 484.106 134.102ZM494.158 134.085C493.297 134.085 492.521 133.892 491.829 133.507C491.138 133.11 490.594 132.566 490.197 131.875C489.801 131.184 489.602 130.402 489.602 129.529C489.602 128.656 489.801 127.874 490.197 127.183C490.594 126.492 491.138 125.953 491.829 125.568C492.521 125.183 493.297 124.99 494.158 124.99C495.02 124.99 495.796 125.183 496.487 125.568C497.179 125.953 497.717 126.492 498.102 127.183C498.499 127.874 498.697 128.656 498.697 129.529C498.697 130.402 498.499 131.184 498.102 131.875C497.717 132.566 497.179 133.11 496.487 133.507C495.796 133.892 495.02 134.085 494.158 134.085ZM494.158 133.014C494.793 133.014 495.36 132.872 495.858 132.589C496.368 132.294 496.765 131.881 497.048 131.348C497.332 130.815 497.473 130.209 497.473 129.529C497.473 128.849 497.332 128.243 497.048 127.71C496.765 127.177 496.368 126.769 495.858 126.486C495.36 126.191 494.793 126.044 494.158 126.044C493.524 126.044 492.951 126.191 492.441 126.486C491.943 126.769 491.546 127.177 491.251 127.71C490.968 128.243 490.826 128.849 490.826 129.529C490.826 130.209 490.968 130.815 491.251 131.348C491.546 131.881 491.943 132.294 492.441 132.589C492.951 132.872 493.524 133.014 494.158 133.014ZM509.22 125.058V134H508.064V132.368C507.746 132.912 507.31 133.337 506.755 133.643C506.199 133.938 505.565 134.085 504.851 134.085C503.683 134.085 502.76 133.762 502.08 133.116C501.411 132.459 501.077 131.501 501.077 130.243V125.058H502.284V130.124C502.284 131.065 502.516 131.779 502.981 132.266C503.445 132.753 504.108 132.997 504.97 132.997C505.91 132.997 506.653 132.714 507.197 132.147C507.741 131.569 508.013 130.77 508.013 129.75V125.058H509.22ZM517.156 124.99C518.278 124.99 519.168 125.319 519.825 125.976C520.494 126.622 520.828 127.568 520.828 128.815V134H519.621V128.934C519.621 128.005 519.389 127.296 518.924 126.809C518.459 126.322 517.796 126.078 516.935 126.078C515.972 126.078 515.207 126.367 514.64 126.945C514.085 127.512 513.807 128.299 513.807 129.308V134H512.6V125.058H513.756V126.707C514.085 126.163 514.538 125.744 515.116 125.449C515.705 125.143 516.385 124.99 517.156 124.99ZM528.814 133.456C528.587 133.66 528.304 133.819 527.964 133.932C527.635 134.034 527.29 134.085 526.927 134.085C526.088 134.085 525.442 133.858 524.989 133.405C524.536 132.952 524.309 132.311 524.309 131.484V126.078H522.711V125.058H524.309V123.103H525.516V125.058H528.236V126.078H525.516V131.416C525.516 131.949 525.646 132.357 525.907 132.64C526.179 132.912 526.564 133.048 527.063 133.048C527.312 133.048 527.55 133.008 527.777 132.929C528.015 132.85 528.219 132.736 528.389 132.589L528.814 133.456ZM538.856 121.386V134H537.7V132.232C537.337 132.833 536.855 133.292 536.255 133.609C535.665 133.926 534.997 134.085 534.249 134.085C533.41 134.085 532.651 133.892 531.971 133.507C531.291 133.122 530.758 132.583 530.373 131.892C529.987 131.201 529.795 130.413 529.795 129.529C529.795 128.645 529.987 127.857 530.373 127.166C530.758 126.475 531.291 125.942 531.971 125.568C532.651 125.183 533.41 124.99 534.249 124.99C534.974 124.99 535.626 125.143 536.204 125.449C536.793 125.744 537.275 126.18 537.649 126.758V121.386H538.856ZM534.351 133.014C534.974 133.014 535.535 132.872 536.034 132.589C536.544 132.294 536.94 131.881 537.224 131.348C537.518 130.815 537.666 130.209 537.666 129.529C537.666 128.849 537.518 128.243 537.224 127.71C536.94 127.177 536.544 126.769 536.034 126.486C535.535 126.191 534.974 126.044 534.351 126.044C533.716 126.044 533.144 126.191 532.634 126.486C532.135 126.769 531.738 127.177 531.444 127.71C531.16 128.243 531.019 128.849 531.019 129.529C531.019 130.209 531.16 130.815 531.444 131.348C531.738 131.881 532.135 132.294 532.634 132.589C533.144 132.872 533.716 133.014 534.351 133.014ZM545.872 134.085C545.011 134.085 544.235 133.892 543.543 133.507C542.852 133.11 542.308 132.566 541.911 131.875C541.515 131.184 541.316 130.402 541.316 129.529C541.316 128.656 541.515 127.874 541.911 127.183C542.308 126.492 542.852 125.953 543.543 125.568C544.235 125.183 545.011 124.99 545.872 124.99C546.734 124.99 547.51 125.183 548.201 125.568C548.893 125.953 549.431 126.492 549.816 127.183C550.213 127.874 550.411 128.656 550.411 129.529C550.411 130.402 550.213 131.184 549.816 131.875C549.431 132.566 548.893 133.11 548.201 133.507C547.51 133.892 546.734 134.085 545.872 134.085ZM545.872 133.014C546.507 133.014 547.074 132.872 547.572 132.589C548.082 132.294 548.479 131.881 548.762 131.348C549.046 130.815 549.187 130.209 549.187 129.529C549.187 128.849 549.046 128.243 548.762 127.71C548.479 127.177 548.082 126.769 547.572 126.486C547.074 126.191 546.507 126.044 545.872 126.044C545.238 126.044 544.665 126.191 544.155 126.486C543.657 126.769 543.26 127.177 542.965 127.71C542.682 128.243 542.54 128.849 542.54 129.529C542.54 130.209 542.682 130.815 542.965 131.348C543.26 131.881 543.657 132.294 544.155 132.589C544.665 132.872 545.238 133.014 545.872 133.014ZM565.75 125.058L562.367 134H561.228L558.406 126.673L555.584 134H554.445L551.079 125.058H552.235L555.04 132.657L557.913 125.058H558.95L561.806 132.657L564.645 125.058H565.75ZM572.124 124.99C573.246 124.99 574.135 125.319 574.793 125.976C575.461 126.622 575.796 127.568 575.796 128.815V134H574.589V128.934C574.589 128.005 574.356 127.296 573.892 126.809C573.427 126.322 572.764 126.078 571.903 126.078C570.939 126.078 570.174 126.367 569.608 126.945C569.052 127.512 568.775 128.299 568.775 129.308V134H567.568V125.058H568.724V126.707C569.052 126.163 569.506 125.744 570.084 125.449C570.673 125.143 571.353 124.99 572.124 124.99ZM483.29 154.99C484.129 154.99 484.888 155.183 485.568 155.568C486.248 155.942 486.781 156.475 487.166 157.166C487.551 157.857 487.744 158.645 487.744 159.529C487.744 160.413 487.551 161.201 487.166 161.892C486.781 162.583 486.248 163.122 485.568 163.507C484.888 163.892 484.129 164.085 483.29 164.085C482.542 164.085 481.868 163.926 481.267 163.609C480.678 163.292 480.202 162.833 479.839 162.232V164H478.683V151.386H479.89V156.758C480.264 156.18 480.74 155.744 481.318 155.449C481.907 155.143 482.565 154.99 483.29 154.99ZM483.205 163.014C483.828 163.014 484.395 162.872 484.905 162.589C485.415 162.294 485.812 161.881 486.095 161.348C486.39 160.815 486.537 160.209 486.537 159.529C486.537 158.849 486.39 158.243 486.095 157.71C485.812 157.177 485.415 156.769 484.905 156.486C484.395 156.191 483.828 156.044 483.205 156.044C482.57 156.044 481.998 156.191 481.488 156.486C480.989 156.769 480.593 157.177 480.298 157.71C480.015 158.243 479.873 158.849 479.873 159.529C479.873 160.209 480.015 160.815 480.298 161.348C480.593 161.881 480.989 162.294 481.488 162.589C481.998 162.872 482.57 163.014 483.205 163.014ZM497.99 159.903H490.51C490.578 160.832 490.935 161.586 491.581 162.164C492.227 162.731 493.043 163.014 494.029 163.014C494.585 163.014 495.095 162.918 495.559 162.725C496.024 162.521 496.426 162.226 496.766 161.841L497.446 162.623C497.05 163.099 496.551 163.462 495.95 163.711C495.361 163.96 494.709 164.085 493.995 164.085C493.077 164.085 492.261 163.892 491.547 163.507C490.845 163.11 490.295 162.566 489.898 161.875C489.502 161.184 489.303 160.402 489.303 159.529C489.303 158.656 489.49 157.874 489.864 157.183C490.25 156.492 490.771 155.953 491.428 155.568C492.097 155.183 492.845 154.99 493.672 154.99C494.5 154.99 495.242 155.183 495.899 155.568C496.557 155.953 497.072 156.492 497.446 157.183C497.82 157.863 498.007 158.645 498.007 159.529L497.99 159.903ZM493.672 156.027C492.811 156.027 492.086 156.305 491.496 156.86C490.918 157.404 490.59 158.118 490.51 159.002H496.851C496.772 158.118 496.438 157.404 495.848 156.86C495.27 156.305 494.545 156.027 493.672 156.027ZM508.743 155.058V162.912C508.743 164.431 508.369 165.553 507.621 166.278C506.885 167.015 505.768 167.383 504.272 167.383C503.445 167.383 502.657 167.258 501.909 167.009C501.173 166.771 500.572 166.437 500.107 166.006L500.719 165.088C501.15 165.473 501.671 165.774 502.283 165.989C502.907 166.204 503.558 166.312 504.238 166.312C505.372 166.312 506.205 166.046 506.737 165.513C507.27 164.992 507.536 164.176 507.536 163.065V161.926C507.162 162.493 506.669 162.923 506.057 163.218C505.457 163.513 504.788 163.66 504.051 163.66C503.213 163.66 502.448 163.479 501.756 163.116C501.076 162.742 500.538 162.226 500.141 161.569C499.756 160.9 499.563 160.147 499.563 159.308C499.563 158.469 499.756 157.721 500.141 157.064C500.538 156.407 501.076 155.897 501.756 155.534C502.436 155.171 503.201 154.99 504.051 154.99C504.811 154.99 505.496 155.143 506.108 155.449C506.72 155.755 507.213 156.197 507.587 156.775V155.058H508.743ZM504.17 162.589C504.816 162.589 505.4 162.453 505.921 162.181C506.443 161.898 506.845 161.507 507.128 161.008C507.423 160.509 507.57 159.943 507.57 159.308C507.57 158.673 507.423 158.112 507.128 157.625C506.845 157.126 506.443 156.741 505.921 156.469C505.411 156.186 504.828 156.044 504.17 156.044C503.524 156.044 502.941 156.18 502.419 156.452C501.909 156.724 501.507 157.109 501.212 157.608C500.929 158.107 500.787 158.673 500.787 159.308C500.787 159.943 500.929 160.509 501.212 161.008C501.507 161.507 501.909 161.898 502.419 162.181C502.941 162.453 503.524 162.589 504.17 162.589ZM512.119 155.058H513.326V164H512.119V155.058ZM512.731 153.103C512.481 153.103 512.272 153.018 512.102 152.848C511.932 152.678 511.847 152.474 511.847 152.236C511.847 152.009 511.932 151.811 512.102 151.641C512.272 151.471 512.481 151.386 512.731 151.386C512.98 151.386 513.19 151.471 513.36 151.641C513.53 151.8 513.615 151.992 513.615 152.219C513.615 152.468 513.53 152.678 513.36 152.848C513.19 153.018 512.98 153.103 512.731 153.103ZM521.24 154.99C522.362 154.99 523.252 155.319 523.909 155.976C524.578 156.622 524.912 157.568 524.912 158.815V164H523.705V158.934C523.705 158.005 523.473 157.296 523.008 156.809C522.543 156.322 521.88 156.078 521.019 156.078C520.056 156.078 519.291 156.367 518.724 156.945C518.169 157.512 517.891 158.299 517.891 159.308V164H516.684V155.058H517.84V156.707C518.169 156.163 518.622 155.744 519.2 155.449C519.789 155.143 520.469 154.99 521.24 154.99ZM534.695 167.298C534.06 166.255 533.573 165.06 533.233 163.711C532.893 162.351 532.723 160.895 532.723 159.342C532.723 157.789 532.893 156.333 533.233 154.973C533.573 153.602 534.06 152.406 534.695 151.386H535.851C535.182 152.531 534.689 153.76 534.372 155.075C534.066 156.39 533.913 157.812 533.913 159.342C533.913 160.872 534.066 162.294 534.372 163.609C534.689 164.924 535.182 166.153 535.851 167.298H534.695ZM545.56 162.912V164H537.213V163.133L542.16 158.288C542.783 157.676 543.202 157.149 543.418 156.707C543.644 156.254 543.758 155.8 543.758 155.347C543.758 154.644 543.514 154.1 543.027 153.715C542.551 153.318 541.865 153.12 540.97 153.12C539.576 153.12 538.493 153.562 537.723 154.446L536.856 153.698C537.32 153.154 537.91 152.735 538.624 152.44C539.349 152.145 540.165 151.998 541.072 151.998C542.284 151.998 543.242 152.287 543.945 152.865C544.659 153.432 545.016 154.214 545.016 155.211C545.016 155.823 544.88 156.412 544.608 156.979C544.336 157.546 543.82 158.197 543.061 158.934L539.015 162.912H545.56ZM556.812 160.872H554.432V164H553.208V160.872H546.493V159.988L552.8 152.1H554.16L548.074 159.784H553.242V157.03H554.432V159.784H556.812V160.872ZM563.292 154.99C564.414 154.99 565.303 155.319 565.961 155.976C566.629 156.622 566.964 157.568 566.964 158.815V164H565.757V158.934C565.757 158.005 565.524 157.296 565.06 156.809C564.595 156.322 563.932 156.078 563.071 156.078C562.107 156.078 561.342 156.367 560.776 156.945C560.22 157.512 559.943 158.299 559.943 159.308V164H558.736V151.386H559.943V156.622C560.271 156.101 560.725 155.698 561.303 155.415C561.881 155.132 562.544 154.99 563.292 154.99ZM569.238 167.298C569.906 166.153 570.399 164.929 570.717 163.626C571.034 162.311 571.193 160.883 571.193 159.342C571.193 157.801 571.034 156.378 570.717 155.075C570.399 153.76 569.906 152.531 569.238 151.386H570.394C571.028 152.406 571.516 153.602 571.856 154.973C572.207 156.333 572.383 157.789 572.383 159.342C572.383 160.895 572.213 162.351 571.873 163.711C571.533 165.071 571.04 166.267 570.394 167.298H569.238Z" fill="black"/>
<path d="M689.064 161L686.344 157.175C686.038 157.209 685.721 157.226 685.392 157.226H682.196V161H680.938V149.1H685.392C686.911 149.1 688.101 149.463 688.962 150.188C689.823 150.913 690.254 151.911 690.254 153.18C690.254 154.109 690.016 154.897 689.54 155.543C689.075 156.178 688.407 156.637 687.534 156.92L690.441 161H689.064ZM685.358 156.155C686.537 156.155 687.438 155.894 688.061 155.373C688.684 154.852 688.996 154.121 688.996 153.18C688.996 152.217 688.684 151.48 688.061 150.97C687.438 150.449 686.537 150.188 685.358 150.188H682.196V156.155H685.358ZM700.754 156.903H693.274C693.342 157.832 693.699 158.586 694.345 159.164C694.991 159.731 695.807 160.014 696.793 160.014C697.348 160.014 697.858 159.918 698.323 159.725C698.788 159.521 699.19 159.226 699.53 158.841L700.21 159.623C699.813 160.099 699.315 160.462 698.714 160.711C698.125 160.96 697.473 161.085 696.759 161.085C695.841 161.085 695.025 160.892 694.311 160.507C693.608 160.11 693.059 159.566 692.662 158.875C692.265 158.184 692.067 157.402 692.067 156.529C692.067 155.656 692.254 154.874 692.628 154.183C693.013 153.492 693.535 152.953 694.192 152.568C694.861 152.183 695.609 151.99 696.436 151.99C697.263 151.99 698.006 152.183 698.663 152.568C699.32 152.953 699.836 153.492 700.21 154.183C700.584 154.863 700.771 155.645 700.771 156.529L700.754 156.903ZM696.436 153.027C695.575 153.027 694.849 153.305 694.26 153.86C693.682 154.404 693.353 155.118 693.274 156.002H699.615C699.536 155.118 699.201 154.404 698.612 153.86C698.034 153.305 697.309 153.027 696.436 153.027ZM710.576 152.058L706.598 161H705.357L701.396 152.058H702.654L706.003 159.674L709.386 152.058H710.576ZM719.813 156.903H712.333C712.401 157.832 712.758 158.586 713.404 159.164C714.05 159.731 714.866 160.014 715.852 160.014C716.407 160.014 716.917 159.918 717.382 159.725C717.846 159.521 718.249 159.226 718.589 158.841L719.269 159.623C718.872 160.099 718.373 160.462 717.773 160.711C717.183 160.96 716.532 161.085 715.818 161.085C714.9 161.085 714.084 160.892 713.37 160.507C712.667 160.11 712.117 159.566 711.721 158.875C711.324 158.184 711.126 157.402 711.126 156.529C711.126 155.656 711.313 154.874 711.687 154.183C712.072 153.492 712.593 152.953 713.251 152.568C713.919 152.183 714.667 151.99 715.495 151.99C716.322 151.99 717.064 152.183 717.722 152.568C718.379 152.953 718.895 153.492 719.269 154.183C719.643 154.863 719.83 155.645 719.83 156.529L719.813 156.903ZM715.495 153.027C714.633 153.027 713.908 153.305 713.319 153.86C712.741 154.404 712.412 155.118 712.333 156.002H718.674C718.594 155.118 718.26 154.404 717.671 153.86C717.093 153.305 716.367 153.027 715.495 153.027ZM725.165 151.99C726.333 151.99 727.228 152.285 727.851 152.874C728.475 153.452 728.786 154.313 728.786 155.458V161H727.63V159.606C727.358 160.071 726.956 160.433 726.423 160.694C725.902 160.955 725.279 161.085 724.553 161.085C723.556 161.085 722.763 160.847 722.173 160.371C721.584 159.895 721.289 159.266 721.289 158.484C721.289 157.725 721.561 157.113 722.105 156.648C722.661 156.183 723.539 155.951 724.74 155.951H727.579V155.407C727.579 154.636 727.364 154.053 726.933 153.656C726.503 153.248 725.874 153.044 725.046 153.044C724.48 153.044 723.936 153.14 723.414 153.333C722.893 153.514 722.445 153.769 722.071 154.098L721.527 153.197C721.981 152.812 722.525 152.517 723.159 152.313C723.794 152.098 724.463 151.99 725.165 151.99ZM724.74 160.133C725.42 160.133 726.004 159.98 726.491 159.674C726.979 159.357 727.341 158.903 727.579 158.314V156.852H724.774C723.244 156.852 722.479 157.385 722.479 158.45C722.479 158.971 722.678 159.385 723.074 159.691C723.471 159.986 724.026 160.133 724.74 160.133ZM732.065 148.386H733.272V161H732.065V148.386ZM736.63 152.058H737.837V161H736.63V152.058ZM737.242 150.103C736.993 150.103 736.783 150.018 736.613 149.848C736.443 149.678 736.358 149.474 736.358 149.236C736.358 149.009 736.443 148.811 736.613 148.641C736.783 148.471 736.993 148.386 737.242 148.386C737.492 148.386 737.701 148.471 737.871 148.641C738.041 148.8 738.126 148.992 738.126 149.219C738.126 149.468 738.041 149.678 737.871 149.848C737.701 150.018 737.492 150.103 737.242 150.103ZM745.752 151.99C746.874 151.99 747.763 152.319 748.421 152.976C749.089 153.622 749.424 154.568 749.424 155.815V161H748.217V155.934C748.217 155.005 747.984 154.296 747.52 153.809C747.055 153.322 746.392 153.078 745.531 153.078C744.567 153.078 743.802 153.367 743.236 153.945C742.68 154.512 742.403 155.299 742.403 156.308V161H741.196V152.058H742.352V153.707C742.68 153.163 743.134 152.744 743.712 152.449C744.301 152.143 744.981 151.99 745.752 151.99ZM761.013 152.058V159.912C761.013 161.431 760.639 162.553 759.891 163.278C759.154 164.015 758.038 164.383 756.542 164.383C755.714 164.383 754.927 164.258 754.179 164.009C753.442 163.771 752.841 163.437 752.377 163.006L752.989 162.088C753.419 162.473 753.941 162.774 754.553 162.989C755.176 163.204 755.828 163.312 756.508 163.312C757.641 163.312 758.474 163.046 759.007 162.513C759.539 161.992 759.806 161.176 759.806 160.065V158.926C759.432 159.493 758.939 159.923 758.327 160.218C757.726 160.513 757.057 160.66 756.321 160.66C755.482 160.66 754.717 160.479 754.026 160.116C753.346 159.742 752.807 159.226 752.411 158.569C752.025 157.9 751.833 157.147 751.833 156.308C751.833 155.469 752.025 154.721 752.411 154.064C752.807 153.407 753.346 152.897 754.026 152.534C754.706 152.171 755.471 151.99 756.321 151.99C757.08 151.99 757.766 152.143 758.378 152.449C758.99 152.755 759.483 153.197 759.857 153.775V152.058H761.013ZM756.44 159.589C757.086 159.589 757.669 159.453 758.191 159.181C758.712 158.898 759.114 158.507 759.398 158.008C759.692 157.509 759.84 156.943 759.84 156.308C759.84 155.673 759.692 155.112 759.398 154.625C759.114 154.126 758.712 153.741 758.191 153.469C757.681 153.186 757.097 153.044 756.44 153.044C755.794 153.044 755.21 153.18 754.689 153.452C754.179 153.724 753.776 154.109 753.482 154.608C753.198 155.107 753.057 155.673 753.057 156.308C753.057 156.943 753.198 157.509 753.482 158.008C753.776 158.507 754.179 158.898 754.689 159.181C755.21 159.453 755.794 159.589 756.44 159.589ZM684.338 191.085C683.477 191.085 682.7 190.892 682.009 190.507C681.318 190.11 680.774 189.566 680.377 188.875C679.98 188.184 679.782 187.402 679.782 186.529C679.782 185.656 679.98 184.874 680.377 184.183C680.774 183.492 681.318 182.953 682.009 182.568C682.7 182.183 683.477 181.99 684.338 181.99C685.199 181.99 685.976 182.183 686.667 182.568C687.358 182.953 687.897 183.492 688.282 184.183C688.679 184.874 688.877 185.656 688.877 186.529C688.877 187.402 688.679 188.184 688.282 188.875C687.897 189.566 687.358 190.11 686.667 190.507C685.976 190.892 685.199 191.085 684.338 191.085ZM684.338 190.014C684.973 190.014 685.539 189.872 686.038 189.589C686.548 189.294 686.945 188.881 687.228 188.348C687.511 187.815 687.653 187.209 687.653 186.529C687.653 185.849 687.511 185.243 687.228 184.71C686.945 184.177 686.548 183.769 686.038 183.486C685.539 183.191 684.973 183.044 684.338 183.044C683.703 183.044 683.131 183.191 682.621 183.486C682.122 183.769 681.726 184.177 681.431 184.71C681.148 185.243 681.006 185.849 681.006 186.529C681.006 187.209 681.148 187.815 681.431 188.348C681.726 188.881 682.122 189.294 682.621 189.589C683.131 189.872 683.703 190.014 684.338 190.014ZM694.299 179.321C693.778 179.321 693.381 179.463 693.109 179.746C692.849 180.029 692.718 180.449 692.718 181.004V182.058H695.472V183.078H692.752V191H691.545V183.078H689.947V182.058H691.545V180.953C691.545 180.137 691.778 179.491 692.242 179.015C692.718 178.539 693.387 178.301 694.248 178.301C694.588 178.301 694.917 178.352 695.234 178.454C695.552 178.545 695.818 178.681 696.033 178.862L695.625 179.763C695.274 179.468 694.832 179.321 694.299 179.321ZM706.26 190.456C706.033 190.66 705.75 190.819 705.41 190.932C705.081 191.034 704.736 191.085 704.373 191.085C703.534 191.085 702.888 190.858 702.435 190.405C701.982 189.952 701.755 189.311 701.755 188.484V183.078H700.157V182.058H701.755V180.103H702.962V182.058H705.682V183.078H702.962V188.416C702.962 188.949 703.092 189.357 703.353 189.64C703.625 189.912 704.01 190.048 704.509 190.048C704.758 190.048 704.996 190.008 705.223 189.929C705.461 189.85 705.665 189.736 705.835 189.589L706.26 190.456ZM713.013 181.99C714.135 181.99 715.025 182.319 715.682 182.976C716.351 183.622 716.685 184.568 716.685 185.815V191H715.478V185.934C715.478 185.005 715.246 184.296 714.781 183.809C714.317 183.322 713.654 183.078 712.792 183.078C711.829 183.078 711.064 183.367 710.497 183.945C709.942 184.512 709.664 185.299 709.664 186.308V191H708.457V178.386H709.664V183.622C709.993 183.101 710.446 182.698 711.024 182.415C711.602 182.132 712.265 181.99 713.013 181.99ZM727.782 186.903H720.302C720.37 187.832 720.727 188.586 721.373 189.164C722.019 189.731 722.835 190.014 723.821 190.014C724.376 190.014 724.886 189.918 725.351 189.725C725.815 189.521 726.218 189.226 726.558 188.841L727.238 189.623C726.841 190.099 726.342 190.462 725.742 190.711C725.152 190.96 724.501 191.085 723.787 191.085C722.869 191.085 722.053 190.892 721.339 190.507C720.636 190.11 720.086 189.566 719.69 188.875C719.293 188.184 719.095 187.402 719.095 186.529C719.095 185.656 719.282 184.874 719.656 184.183C720.041 183.492 720.562 182.953 721.22 182.568C721.888 182.183 722.636 181.99 723.464 181.99C724.291 181.99 725.033 182.183 725.691 182.568C726.348 182.953 726.864 183.492 727.238 184.183C727.612 184.863 727.799 185.645 727.799 186.529L727.782 186.903ZM723.464 183.027C722.602 183.027 721.877 183.305 721.288 183.86C720.71 184.404 720.381 185.118 720.302 186.002H726.643C726.563 185.118 726.229 184.404 725.64 183.86C725.062 183.305 724.336 183.027 723.464 183.027ZM747.828 182.058L744.445 191H743.306L740.484 183.673L737.662 191H736.523L733.157 182.058H734.313L737.118 189.657L739.991 182.058H741.028L743.884 189.657L746.723 182.058H747.828ZM749.646 182.058H750.853V191H749.646V182.058ZM750.258 180.103C750.009 180.103 749.799 180.018 749.629 179.848C749.459 179.678 749.374 179.474 749.374 179.236C749.374 179.009 749.459 178.811 749.629 178.641C749.799 178.471 750.009 178.386 750.258 178.386C750.507 178.386 750.717 178.471 750.887 178.641C751.057 178.8 751.142 178.992 751.142 179.219C751.142 179.468 751.057 179.678 750.887 179.848C750.717 180.018 750.507 180.103 750.258 180.103ZM758.767 181.99C759.889 181.99 760.779 182.319 761.436 182.976C762.105 183.622 762.439 184.568 762.439 185.815V191H761.232V185.934C761.232 185.005 761 184.296 760.535 183.809C760.071 183.322 759.408 183.078 758.546 183.078C757.583 183.078 756.818 183.367 756.251 183.945C755.696 184.512 755.418 185.299 755.418 186.308V191H754.211V182.058H755.367V183.707C755.696 183.163 756.149 182.744 756.727 182.449C757.317 182.143 757.997 181.99 758.767 181.99ZM770.272 181.99C771.394 181.99 772.284 182.319 772.941 182.976C773.61 183.622 773.944 184.568 773.944 185.815V191H772.737V185.934C772.737 185.005 772.505 184.296 772.04 183.809C771.576 183.322 770.913 183.078 770.051 183.078C769.088 183.078 768.323 183.367 767.756 183.945C767.201 184.512 766.923 185.299 766.923 186.308V191H765.716V182.058H766.872V183.707C767.201 183.163 767.654 182.744 768.232 182.449C768.822 182.143 769.502 181.99 770.272 181.99ZM785.04 186.903H777.56C777.628 187.832 777.985 188.586 778.631 189.164C779.277 189.731 780.093 190.014 781.079 190.014C781.635 190.014 782.145 189.918 782.609 189.725C783.074 189.521 783.476 189.226 783.816 188.841L784.496 189.623C784.1 190.099 783.601 190.462 783 190.711C782.411 190.96 781.759 191.085 781.045 191.085C780.127 191.085 779.311 190.892 778.597 190.507C777.895 190.11 777.345 189.566 776.948 188.875C776.552 188.184 776.353 187.402 776.353 186.529C776.353 185.656 776.54 184.874 776.914 184.183C777.3 183.492 777.821 182.953 778.478 182.568C779.147 182.183 779.895 181.99 780.722 181.99C781.55 181.99 782.292 182.183 782.949 182.568C783.607 182.953 784.122 183.492 784.496 184.183C784.87 184.863 785.057 185.645 785.057 186.529L785.04 186.903ZM780.722 183.027C779.861 183.027 779.136 183.305 778.546 183.86C777.968 184.404 777.64 185.118 777.56 186.002H783.901C783.822 185.118 783.488 184.404 782.898 183.86C782.32 183.305 781.595 183.027 780.722 183.027ZM788.67 183.809C788.953 183.208 789.373 182.755 789.928 182.449C790.495 182.143 791.192 181.99 792.019 181.99V183.163L791.73 183.146C790.789 183.146 790.053 183.435 789.52 184.013C788.987 184.591 788.721 185.401 788.721 186.444V191H787.514V182.058H788.67V183.809Z" fill="black"/>
<path d="M288.196 142.188V146.863H294.35V147.951H288.196V153H286.938V141.1H295.098V142.188H288.196ZM297.275 144.058H298.482V153H297.275V144.058ZM297.887 142.103C297.637 142.103 297.428 142.018 297.258 141.848C297.088 141.678 297.003 141.474 297.003 141.236C297.003 141.009 297.088 140.811 297.258 140.641C297.428 140.471 297.637 140.386 297.887 140.386C298.136 140.386 298.346 140.471 298.516 140.641C298.686 140.8 298.771 140.992 298.771 141.219C298.771 141.468 298.686 141.678 298.516 141.848C298.346 142.018 298.136 142.103 297.887 142.103ZM302.996 145.809C303.28 145.208 303.699 144.755 304.254 144.449C304.821 144.143 305.518 143.99 306.345 143.99V145.163L306.056 145.146C305.116 145.146 304.379 145.435 303.846 146.013C303.314 146.591 303.047 147.401 303.047 148.444V153H301.84V144.058H302.996V145.809ZM310.994 153.085C310.269 153.085 309.572 152.983 308.903 152.779C308.246 152.564 307.73 152.297 307.356 151.98L307.9 151.028C308.274 151.323 308.744 151.566 309.311 151.759C309.878 151.94 310.467 152.031 311.079 152.031C311.895 152.031 312.496 151.906 312.881 151.657C313.278 151.396 313.476 151.034 313.476 150.569C313.476 150.24 313.368 149.985 313.153 149.804C312.938 149.611 312.666 149.47 312.337 149.379C312.008 149.277 311.572 149.181 311.028 149.09C310.303 148.954 309.719 148.818 309.277 148.682C308.835 148.535 308.455 148.291 308.138 147.951C307.832 147.611 307.679 147.141 307.679 146.54C307.679 145.792 307.991 145.18 308.614 144.704C309.237 144.228 310.104 143.99 311.215 143.99C311.793 143.99 312.371 144.069 312.949 144.228C313.527 144.375 314.003 144.574 314.377 144.823L313.85 145.792C313.113 145.282 312.235 145.027 311.215 145.027C310.444 145.027 309.861 145.163 309.464 145.435C309.079 145.707 308.886 146.064 308.886 146.506C308.886 146.846 308.994 147.118 309.209 147.322C309.436 147.526 309.713 147.679 310.042 147.781C310.371 147.872 310.824 147.968 311.402 148.07C312.116 148.206 312.688 148.342 313.119 148.478C313.55 148.614 313.918 148.846 314.224 149.175C314.53 149.504 314.683 149.957 314.683 150.535C314.683 151.317 314.354 151.94 313.697 152.405C313.051 152.858 312.15 153.085 310.994 153.085ZM321.623 152.456C321.397 152.66 321.113 152.819 320.773 152.932C320.445 153.034 320.099 153.085 319.736 153.085C318.898 153.085 318.252 152.858 317.798 152.405C317.345 151.952 317.118 151.311 317.118 150.484V145.078H315.52V144.058H317.118V142.103H318.325V144.058H321.045V145.078H318.325V150.416C318.325 150.949 318.456 151.357 318.716 151.64C318.988 151.912 319.374 152.048 319.872 152.048C320.122 152.048 320.36 152.008 320.586 151.929C320.824 151.85 321.028 151.736 321.198 151.589L321.623 152.456ZM332.877 143.99C333.716 143.99 334.475 144.183 335.155 144.568C335.835 144.942 336.368 145.475 336.753 146.166C337.138 146.857 337.331 147.645 337.331 148.529C337.331 149.413 337.138 150.201 336.753 150.892C336.368 151.583 335.835 152.122 335.155 152.507C334.475 152.892 333.716 153.085 332.877 153.085C332.129 153.085 331.455 152.926 330.854 152.609C330.265 152.292 329.789 151.833 329.426 151.232V153H328.27V140.386H329.477V145.758C329.851 145.18 330.327 144.744 330.905 144.449C331.494 144.143 332.152 143.99 332.877 143.99ZM332.792 152.014C333.415 152.014 333.982 151.872 334.492 151.589C335.002 151.294 335.399 150.881 335.682 150.348C335.977 149.815 336.124 149.209 336.124 148.529C336.124 147.849 335.977 147.243 335.682 146.71C335.399 146.177 335.002 145.769 334.492 145.486C333.982 145.191 333.415 145.044 332.792 145.044C332.157 145.044 331.585 145.191 331.075 145.486C330.576 145.769 330.18 146.177 329.885 146.71C329.602 147.243 329.46 147.849 329.46 148.529C329.46 149.209 329.602 149.815 329.885 150.348C330.18 150.881 330.576 151.294 331.075 151.589C331.585 151.872 332.157 152.014 332.792 152.014ZM339.791 144.058H340.998V153H339.791V144.058ZM340.403 142.103C340.154 142.103 339.944 142.018 339.774 141.848C339.604 141.678 339.519 141.474 339.519 141.236C339.519 141.009 339.604 140.811 339.774 140.641C339.944 140.471 340.154 140.386 340.403 140.386C340.653 140.386 340.862 140.471 341.032 140.641C341.202 140.8 341.287 140.992 341.287 141.219C341.287 141.468 341.202 141.678 341.032 141.848C340.862 142.018 340.653 142.103 340.403 142.103ZM352.517 140.386V153H351.361V151.232C350.998 151.833 350.516 152.292 349.916 152.609C349.326 152.926 348.658 153.085 347.91 153.085C347.071 153.085 346.312 152.892 345.632 152.507C344.952 152.122 344.419 151.583 344.034 150.892C343.648 150.201 343.456 149.413 343.456 148.529C343.456 147.645 343.648 146.857 344.034 146.166C344.419 145.475 344.952 144.942 345.632 144.568C346.312 144.183 347.071 143.99 347.91 143.99C348.635 143.99 349.287 144.143 349.865 144.449C350.454 144.744 350.936 145.18 351.31 145.758V140.386H352.517ZM348.012 152.014C348.635 152.014 349.196 151.872 349.695 151.589C350.205 151.294 350.601 150.881 350.885 150.348C351.179 149.815 351.327 149.209 351.327 148.529C351.327 147.849 351.179 147.243 350.885 146.71C350.601 146.177 350.205 145.769 349.695 145.486C349.196 145.191 348.635 145.044 348.012 145.044C347.377 145.044 346.805 145.191 346.295 145.486C345.796 145.769 345.399 146.177 345.105 146.71C344.821 147.243 344.68 147.849 344.68 148.529C344.68 149.209 344.821 149.815 345.105 150.348C345.399 150.881 345.796 151.294 346.295 151.589C346.805 151.872 347.377 152.014 348.012 152.014Z" fill="black"/>
</svg>
