<svg width="32" height="32" viewBox="0 0 32 32" fill="none" xmlns="http://www.w3.org/2000/svg">
<path d="M8.08035 23.9196C8.70518 24.5445 9.71825 24.5445 10.3431 23.9196L23.9195 10.3432C24.5444 9.71835 24.5444 8.70529 23.9195 8.08045C23.2947 7.45561 22.2816 7.45561 21.6568 8.08045L8.08034 21.6569C7.45551 22.2817 7.45551 23.2948 8.08035 23.9196Z" fill="#9CBACE"/>
<path d="M8.08036 8.08047C7.45552 8.70531 7.45552 9.71837 8.08036 10.3432L21.6568 23.9197C22.2816 24.5445 23.2947 24.5445 23.9196 23.9197C24.5444 23.2948 24.5444 22.2818 23.9196 21.6569L10.3431 8.08047C9.71826 7.45563 8.7052 7.45563 8.08036 8.08047Z" fill="#9CBACE"/>
</svg>
