<svg width="43" height="40" viewBox="0 0 43 40" fill="none" xmlns="http://www.w3.org/2000/svg">
<path d="M7.2931 0.258972C6.44288 1.08792 5.66545 1.98825 4.96937 2.95004H11.449L7.2931 0.258972ZM12.4768 3.61433H4.50462C4.33422 3.86433 4.16798 4.12028 4.00591 4.38218C3.84325 4.66611 3.68238 4.96254 3.52508 5.27504H15.0383L12.4768 3.61433ZM16.3235 6.11433H3.12468C2.77433 6.87385 2.43471 7.70718 2.10581 8.61433H17.5569C17.8125 8.20897 18.0788 7.8179 18.363 7.44647L16.3235 6.11433ZM40.3205 6.11433H36.9511C36.8456 6.10741 36.7467 6.06066 36.6744 5.98356C36.6021 5.90646 36.5619 5.80478 36.5619 5.69915C36.5619 5.59352 36.6021 5.49184 36.6744 5.41474C36.7467 5.33764 36.8456 5.29089 36.9511 5.28397H39.904C39.7414 4.97147 39.5733 4.67504 39.4053 4.39111C39.2373 4.10718 39.0871 3.87326 38.9227 3.62326H30.9934L28.4552 5.28397H35.455C35.5118 5.28024 35.5689 5.28821 35.6225 5.30739C35.6762 5.32657 35.7253 5.35654 35.7669 5.39546C35.8085 5.43438 35.8417 5.48141 35.8644 5.53365C35.887 5.58589 35.8987 5.64221 35.8987 5.69915C35.8987 5.75608 35.887 5.81241 35.8644 5.86465C35.8417 5.91688 35.8085 5.96392 35.7669 6.00283C35.7253 6.04175 35.6762 6.07173 35.6225 6.09091C35.5689 6.11008 35.5118 6.11805 35.455 6.11433H27.1878L25.1662 7.42861C25.4583 7.80328 25.7304 8.19311 25.9813 8.59647H41.3412C41.0158 7.69528 40.675 6.86492 40.3187 6.1054L40.3205 6.11433ZM41.6826 9.60182H26.5461L26.6301 9.7679C27.0455 10.5581 27.3791 11.3886 27.6258 12.2465C27.7104 12.5228 27.7796 12.8036 27.8331 13.0875H42.453C42.3041 11.9014 42.0456 10.7315 41.6808 9.5929L41.6826 9.60182ZM9.61147 13.0786H15.5978C15.661 12.7945 15.7385 12.5138 15.8301 12.2375C16.1048 11.3797 16.4603 10.5498 16.8919 9.75897C16.9205 9.70361 16.9509 9.64647 16.9813 9.5929H1.75725C1.38409 10.7275 1.11779 11.8945 0.961822 13.0786H7.28417C7.46052 13.0786 7.62965 13.1486 7.75435 13.2732C7.87905 13.3978 7.94911 13.5667 7.94911 13.7429C7.94911 13.9191 7.87905 14.088 7.75435 14.2126C7.62965 14.3372 7.46052 14.4072 7.28417 14.4072H0.817036C0.749111 15.2274 0.715149 16.0875 0.715149 16.9875C0.715149 17.5233 0.729449 18.0411 0.761624 18.559H15.9964C15.5623 17.4914 15.35 16.3468 15.3725 15.1947C15.3725 14.9286 15.3725 14.659 15.4029 14.4072H9.61147C9.43512 14.4072 9.26599 14.3372 9.14129 14.2126C9.01659 14.088 8.94653 13.9191 8.94653 13.7429C8.94653 13.5667 9.01659 13.3978 9.14129 13.2732C9.26599 13.1486 9.43512 13.0786 9.61147 13.0786ZM42.596 14.4072H28.0154C28.0351 14.6661 28.0423 14.9286 28.0423 15.1947C28.0631 16.3471 27.849 17.4918 27.4131 18.559H42.6496C42.6806 18.0411 42.6961 17.5173 42.6961 16.9875C42.6961 16.0875 42.6627 15.2274 42.596 14.4072ZM10.053 35.4947C11.1256 36.2267 12.2623 36.8603 13.4492 37.3875C16.047 38.5328 18.859 39.1129 21.6985 39.0893C24.5396 39.113 27.3534 38.5329 29.9531 37.3875C31.1401 36.8604 32.2768 36.2268 33.3493 35.4947H10.053ZM36.3702 25.3661H41.2286C41.854 23.7064 42.2794 21.9781 42.4959 20.2179H26.3978C26.3584 20.2661 26.3155 20.3143 26.2744 20.3608C25.0947 21.6965 23.5712 22.3643 21.7038 22.3643C19.8365 22.3643 18.3136 21.6953 17.135 20.3572L17.0117 20.2143H0.924285C1.14133 21.9746 1.56737 23.7029 2.1934 25.3625H32.2232C32.3576 25.3568 32.4918 25.3784 32.6177 25.4258C32.7435 25.4733 32.8585 25.5457 32.9556 25.6387C33.0527 25.7317 33.13 25.8434 33.1828 25.967C33.2356 26.0907 33.2628 26.2237 33.2628 26.3581C33.2628 26.4925 33.2356 26.6255 33.1828 26.7491C33.13 26.8727 33.0527 26.9844 32.9556 27.0774C32.8585 27.1704 32.7435 27.2428 32.6177 27.2903C32.4918 27.3378 32.3576 27.3593 32.2232 27.3536H3.03888C3.99596 29.3273 5.25651 31.1392 6.77473 32.7232C6.91952 32.8732 7.06609 33.0215 7.21445 33.1661H36.1718C36.3201 33.0215 36.4667 32.8732 36.6115 32.7232C38.1314 31.1401 39.3927 29.3281 40.3491 27.3536H36.3702C36.2357 27.3593 36.1016 27.3378 35.9757 27.2903C35.8498 27.2428 35.7349 27.1704 35.6378 27.0774C35.5406 26.9844 35.4633 26.8727 35.4105 26.7491C35.3577 26.6255 35.3305 26.4925 35.3305 26.3581C35.3305 26.2237 35.3577 26.0907 35.4105 25.967C35.4633 25.8434 35.5406 25.7317 35.6378 25.6387C35.7349 25.5457 35.8498 25.4733 35.9757 25.4258C36.1016 25.3784 36.2357 25.3568 36.3702 25.3625V25.3661ZM36.1181 0.258972L32.0069 2.95004H38.4669C37.7739 1.97847 36.9872 1.07713 36.1181 0.258972Z" fill="#E6B94C"/>
</svg>
