<svg width="24" height="16" viewBox="0 0 24 16" fill="none" xmlns="http://www.w3.org/2000/svg">
<path d="M0.799988 14.4C0.799988 15.2837 1.51633 16 2.39999 16H21.6C22.4836 16 23.2 15.2837 23.2 14.4C23.2 13.5163 22.4836 12.8 21.6 12.8H2.39999C1.51633 12.8 0.799988 13.5163 0.799988 14.4ZM2.39999 0C1.51633 0 0.799988 0.716345 0.799988 1.6C0.799988 2.48366 1.51633 3.2 2.39999 3.2H21.6C22.4836 3.2 23.2 2.48366 23.2 1.6C23.2 0.716345 22.4836 0 21.6 0H2.39999ZM0.799988 8C0.799988 8.88366 1.51633 9.6 2.39999 9.6H21.6C22.4836 9.6 23.2 8.88366 23.2 8C23.2 7.11634 22.4836 6.4 21.6 6.4H2.39999C1.51633 6.4 0.799988 7.11634 0.799988 8Z" fill="#9CBACE"/>
</svg>
