<svg width="15" height="9" viewBox="0 0 15 9" fill="none" xmlns="http://www.w3.org/2000/svg">
<path d="M14.0624 -8.71709e-07L0.937621 2.75698e-07C0.683706 2.97896e-07 0.463911 0.0988925 0.278439 0.29684C0.0930693 0.494734 2.30607e-07 0.729076 2.54285e-07 0.999921C2.77963e-07 1.27077 0.0930179 1.505 0.278439 1.70317L6.84087 8.70316C7.02629 8.90083 7.24593 9 7.5 9C7.75407 9 7.97371 8.90083 8.15929 8.70316L14.7217 1.70317C14.9073 1.50522 15 1.27076 15 0.99992C15 0.72913 14.9073 0.494733 14.7217 0.296839C14.5359 0.0988913 14.3163 -8.93903e-07 14.0624 -8.71709e-07Z" fill="#9CBACE"/>
</svg>
