<svg width="22" height="22" viewBox="0 0 22 22" fill="none" xmlns="http://www.w3.org/2000/svg">
<path fill-rule="evenodd" clip-rule="evenodd" d="M0.403198 11C0.403198 8.18955 1.51964 5.49422 3.50693 3.50693C5.49422 1.51964 8.18955 0.403198 11 0.403198C13.8104 0.403198 16.5058 1.51964 18.4931 3.50693C20.4804 5.49422 21.5968 8.18955 21.5968 11C21.5968 13.8104 20.4804 16.5058 18.4931 18.4931C16.5058 20.4804 13.8104 21.5968 11 21.5968C8.18955 21.5968 5.49422 20.4804 3.50693 18.4931C1.51964 16.5058 0.403198 13.8104 0.403198 11ZM11 1.9232C8.59268 1.9232 6.28396 2.8795 4.58173 4.58173C2.8795 6.28396 1.9232 8.59268 1.9232 11C1.9232 13.4073 2.8795 15.716 4.58173 17.4183C6.28396 19.1205 8.59268 20.0768 11 20.0768C13.4073 20.0768 15.716 19.1205 17.4183 17.4183C19.1205 15.716 20.0768 13.4073 20.0768 11C20.0768 8.59268 19.1205 6.28396 17.4183 4.58173C15.716 2.8795 13.4073 1.9232 11 1.9232ZM12.2 15.8C12.2 16.1183 12.0736 16.4235 11.8485 16.6485C11.6235 16.8736 11.3183 17 11 17C10.6817 17 10.3765 16.8736 10.1515 16.6485C9.92643 16.4235 9.8 16.1183 9.8 15.8C9.8 15.4817 9.92643 15.1765 10.1515 14.9515C10.3765 14.7264 10.6817 14.6 11 14.6C11.3183 14.6 11.6235 14.7264 11.8485 14.9515C12.0736 15.1765 12.2 15.4817 12.2 15.8ZM8.68 9C8.68 7.9152 9.616 6.88 11 6.88C12.384 6.88 13.32 7.9152 13.32 9C13.32 9.7856 12.888 10.1872 12.1424 10.64C12.0608 10.6912 11.9648 10.7456 11.8608 10.8064C11.5481 10.9791 11.2467 11.1715 10.9584 11.3824C10.5712 11.6832 10.12 12.1712 10.12 12.92C10.1192 13.1534 10.2111 13.3776 10.3755 13.5432C10.5399 13.7088 10.7634 13.8024 10.9968 13.8032C11.2302 13.804 11.4544 13.7121 11.62 13.5477C11.7856 13.3833 11.8792 13.1598 11.88 12.9264C11.9247 12.866 11.9787 12.8131 12.04 12.7696C12.2032 12.6432 12.384 12.5392 12.6256 12.3984C12.7504 12.3264 12.8928 12.2432 13.0576 12.144C13.912 11.624 15.08 10.7664 15.08 9C15.08 6.8848 13.296 5.12 11 5.12C8.704 5.12 6.92 6.8848 6.92 9C6.92 9.23339 7.01271 9.45722 7.17774 9.62225C7.34278 9.78729 7.56661 9.88 7.8 9.88C8.03339 9.88 8.25722 9.78729 8.42225 9.62225C8.58729 9.45722 8.68 9.23339 8.68 9Z" fill="#9CBACE"/>
</svg>
